<svg viewBox="0 0 2161 1073" fill="none" xmlns="http://www.w3.org/2000/svg">
<mask id="mask0_95_67" style="mask-type:alpha" maskUnits="userSpaceOnUse" x="0" y="0">
<path d="M0.432617 1072.66L2160.43 1072.66L2160.43 0.156006L0.432523 0.156195L0.432617 1072.66Z" fill="url(#paint0_radial_95_67)"/>
</mask>
<g mask="url(#mask0_95_67)">
<path d="M597.132 2293.73C619.212 2308.42 641.847 2322.22 665.001 2335.04C686.001 2346.59 707.423 2357.28 729.258 2366.99M597.132 2293.73C592.707 2297.77 588.102 2301.68 583.137 2305.03C579.972 2307.14 576.687 2309.04 573.102 2310.36C597.717 2321.39 622.707 2331.55 648.012 2340.82C674.775 2350.5 701.882 2359.25 729.258 2366.99M597.132 2293.73C626.682 2304.44 656.592 2314.02 686.82 2322.53C718.811 2331.41 751.077 2339.09 783.603 2345.66C773.948 2351.16 764.022 2356.1 753.68 2360.08C745.736 2363.09 737.604 2365.51 729.258 2366.99M783.609 2345.64C804.59 2357.79 826.029 2369.03 848.001 2379.19M783.609 2345.64C773.954 2351.14 764.027 2356.08 753.686 2360.08C745.755 2363.08 737.609 2365.48 729.264 2366.98C757.952 2375.01 786.884 2382.01 816.041 2387.96C846.222 2394.05 876.612 2399.06 907.142 2402.99M783.609 2345.64C817.532 2352.4 851.67 2357.89 885.978 2362.24C921.227 2366.56 956.601 2369.69 992.064 2371.57C977.247 2379.15 962.066 2385.97 946.458 2391.68C933.593 2396.31 920.498 2400.17 907.142 2402.99M848.001 2379.19C867.338 2388.06 887.058 2396.03 907.142 2402.99M848.001 2379.19C867.356 2388.06 887.058 2396.03 907.142 2402.99M1096.34 2413.03C1127.98 2412.33 1159.57 2410.55 1191.1 2407.66C1222.09 2404.7 1252.97 2400.69 1283.69 2395.57C1271.68 2393.19 1259.9 2389.81 1248.35 2385.7C1234.12 2380.58 1220.32 2374.34 1206.85 2367.4C1187.87 2377.54 1168.46 2386.85 1148.58 2395.01M1096.34 2413.03C1114.08 2408.01 1131.48 2401.94 1148.58 2395.01M1096.34 2413.03C1079.69 2408.67 1063.35 2403.27 1047.3 2397.03C1028.44 2389.57 1010.04 2380.99 992.064 2371.58C1027.94 2373.39 1063.84 2373.99 1099.76 2373.32C1135.52 2372.56 1171.24 2370.61 1206.86 2367.4C1187.87 2377.54 1168.46 2386.85 1148.58 2395.01M1410.67 2333.74C1418.84 2338.78 1427.29 2343.37 1436.14 2347.05C1442.72 2349.76 1449.48 2351.92 1456.46 2353.24C1428.78 2362.24 1400.81 2370.19 1372.58 2377.18C1343.17 2384.37 1313.52 2390.49 1283.69 2395.56M1410.67 2333.74C1389.2 2346.63 1367.24 2358.62 1344.75 2369.53C1324.78 2379.13 1304.43 2387.85 1283.69 2395.56M1410.67 2333.74C1377.74 2341.7 1344.55 2348.44 1311.15 2354.03C1276.54 2359.7 1241.76 2364.15 1206.85 2367.38C1220.32 2374.33 1234.12 2380.58 1248.35 2385.73C1259.9 2389.83 1271.68 2393.2 1283.69 2395.56M1410.67 2333.74C1389.2 2346.63 1367.24 2358.62 1344.75 2369.53C1324.78 2379.13 1304.43 2387.85 1283.69 2395.56M1589.06 2275.96C1592.23 2279.72 1595.49 2283.44 1599.02 2286.89C1601.03 2288.86 1603.13 2290.72 1605.5 2292.24C1582.15 2303.86 1558.41 2314.66 1534.32 2324.59C1508.71 2335.11 1482.73 2344.63 1456.46 2353.25M1589.06 2275.96C1566.99 2291.24 1544.38 2305.69 1521.21 2319.18C1500.06 2331.39 1478.48 2342.8 1456.46 2353.25M1589.06 2275.96C1561.01 2287.51 1532.54 2297.96 1503.72 2307.41C1473.02 2317.35 1441.98 2326.11 1410.67 2333.77C1418.84 2338.8 1427.29 2343.39 1436.14 2347.08C1442.72 2349.77 1449.48 2351.94 1456.46 2353.25M1589.06 2275.96C1566.99 2291.24 1544.38 2305.69 1521.2 2319.18C1500.06 2331.39 1478.48 2342.8 1456.46 2353.25M1589.07 2275.94C1584.03 2269.88 1579.23 2263.62 1574.51 2257.3C1567.58 2247.94 1560.86 2238.45 1554.23 2228.86C1585.65 2219.16 1616.73 2208.34 1647.37 2196.3C1675.35 2185.21 1702.92 2173.07 1729.96 2159.77M1589.07 2275.94C1613.07 2259.17 1636.38 2241.44 1659.06 2222.87C1683.46 2202.73 1707.08 2181.67 1729.96 2159.77M1589.07 2275.94C1615.1 2265.09 1640.73 2253.32 1665.88 2240.49C1689 2228.62 1711.67 2215.9 1733.83 2202.26C1734.44 2196.54 1734.3 2190.76 1733.84 2185.04C1733.12 2176.54 1731.68 2168.1 1729.96 2159.77M1589.07 2275.94C1613.07 2259.17 1636.38 2241.44 1659.06 2222.87C1683.46 2202.73 1707.08 2181.67 1729.96 2159.77M1410.68 2333.74C1399.7 2326.9 1389.25 2319.23 1379.11 2311.15C1365.8 2300.5 1353.05 2289.08 1340.65 2277.33C1377.81 2271.52 1414.77 2264.54 1451.48 2256.23C1486.03 2248.28 1520.31 2239.21 1554.23 2228.83M1410.68 2333.74C1434.7 2319.2 1458.06 2303.59 1480.82 2287.09M1410.68 2333.74C1441.99 2326.07 1473.03 2317.3 1503.73 2307.37C1532.55 2297.95 1561.02 2287.5 1589.07 2275.92C1584.03 2269.87 1579.23 2263.61 1574.51 2257.29C1567.58 2247.94 1560.86 2238.42 1554.23 2228.83M1554.23 2228.83C1530.48 2249.18 1506.04 2268.67 1480.82 2287.09M1554.23 2228.83C1530.48 2249.18 1506.04 2268.67 1480.82 2287.09M1206.85 2367.4C1190.26 2358.72 1174.25 2349 1158.66 2338.6C1139.63 2325.77 1121.29 2311.97 1103.44 2297.51M1206.85 2367.4C1228.84 2355.5 1250.2 2342.47 1271.03 2328.6C1294.93 2312.52 1318.1 2295.34 1340.64 2277.36M1206.85 2367.4C1241.76 2364.15 1276.54 2359.69 1311.15 2354.02C1344.55 2348.45 1377.74 2341.71 1410.67 2333.75C1399.7 2326.91 1389.24 2319.27 1379.1 2311.17C1365.79 2300.49 1353.04 2289.11 1340.64 2277.36M1206.85 2367.4C1228.84 2355.5 1250.2 2342.47 1271.03 2328.6C1294.94 2312.52 1318.1 2295.34 1340.64 2277.36M1103.44 2297.51C1143.63 2296.75 1183.75 2294.68 1223.8 2291.33C1262.89 2287.94 1301.85 2283.3 1340.64 2277.36M992.058 2371.58C970.985 2360.44 950.534 2348.12 930.588 2335C907.445 2319.64 885.029 2303.17 863.21 2285.9M992.058 2371.58C1010.03 2362.27 1027.4 2351.89 1044.33 2340.75C1064.68 2327.25 1084.32 2312.75 1103.44 2297.53C1063.05 2298.19 1022.67 2297.6 982.314 2295.69C942.512 2293.72 902.799 2290.47 863.21 2285.9M992.058 2371.58C956.595 2369.68 921.21 2366.56 885.96 2362.24C851.667 2357.88 817.529 2352.38 783.603 2345.63C796.166 2338.4 808.197 2330.23 819.89 2321.58C834.872 2310.37 849.231 2298.39 863.21 2285.9M783.605 2345.65C759.926 2331.8 736.902 2316.89 714.458 2301.04C689.363 2283.23 665.048 2264.32 641.397 2244.55M783.605 2345.65C796.167 2338.38 808.193 2330.25 819.872 2321.57C834.857 2310.38 849.23 2298.39 863.208 2285.92C824.897 2281.41 786.741 2275.66 748.811 2268.63C712.751 2261.81 676.925 2253.85 641.397 2244.55M783.605 2345.65C751.08 2339.07 718.799 2331.39 686.82 2322.5C656.592 2313.99 626.667 2304.45 597.117 2293.71C603.792 2287.54 610.077 2280.96 616.197 2274.24C624.912 2264.6 633.237 2254.64 641.397 2244.55M597.117 2293.71C572.937 2277.5 549.417 2260.3 526.542 2242.21C501.732 2222.45 477.702 2201.74 454.422 2180.17M597.117 2293.71C603.792 2287.53 610.077 2280.98 616.197 2274.26C624.897 2264.6 633.237 2254.67 641.412 2244.53C608.217 2235.76 575.352 2225.86 542.847 2214.67C512.967 2204.3 483.432 2192.83 454.422 2180.17M597.117 2293.71C572.937 2277.5 549.417 2260.3 526.527 2242.21C501.732 2222.45 477.702 2201.74 454.422 2180.17M597.117 2293.71C569.547 2283.61 542.337 2272.48 515.577 2260.3C490.857 2248.97 466.572 2236.68 442.767 2223.44C443.562 2217.57 444.867 2211.8 446.382 2206.07C448.692 2197.33 451.467 2188.73 454.422 2180.17M442.767 2223.44C419.877 2205.48 397.647 2186.68 376.077 2167.07C353.262 2146.24 331.257 2124.54 309.972 2102.07M442.767 2223.44C443.547 2217.58 444.882 2211.78 446.382 2206.05C448.692 2197.32 451.467 2188.7 454.422 2180.14C428.052 2168.55 402.117 2155.95 376.752 2142.23C353.952 2129.77 331.662 2116.42 309.972 2102.07M442.767 2223.44C419.877 2205.48 397.647 2186.68 376.062 2167.07C353.277 2146.24 331.257 2124.54 309.972 2102.07M442.767 2223.44C420.987 2211.21 399.642 2198.2 378.822 2184.28C359.877 2171.55 341.412 2158.14 323.457 2143.98C320.202 2138.42 317.592 2132.53 315.507 2126.39C312.882 2118.51 311.142 2110.32 309.972 2102.07M185.037 1948.6C204.402 1976.08 224.652 2002.91 245.832 2028.97C266.367 2054.08 287.742 2078.5 309.972 2102.09M185.037 1948.6C187.347 1962.05 190.422 1975.36 194.502 1988.41C197.937 1999.12 202.047 2009.63 206.952 2019.74C221.922 2034.18 237.522 2047.88 253.647 2060.9C271.827 2075.5 290.622 2089.17 309.972 2102.09M185.037 1948.6C203.397 1962.54 222.462 1975.46 242.037 1987.55C264.552 2001.32 287.712 2013.98 311.352 2025.68C309.567 2040.07 308.352 2054.57 308.142 2069.11C308.037 2080.14 308.502 2091.15 309.972 2102.09M311.352 2025.69C334.032 2053.83 357.627 2081.25 382.152 2107.76C405.402 2132.76 429.477 2156.93 454.422 2180.17M311.352 2025.69C309.567 2040.09 308.352 2054.57 308.142 2069.11C308.022 2080.14 308.502 2091.17 309.972 2102.07C331.662 2116.45 353.952 2129.79 376.752 2142.22C402.117 2155.96 428.052 2168.57 454.422 2180.17M311.352 2025.69C338.247 2038.89 365.712 2050.89 393.552 2061.86C424.827 2074.09 456.567 2085.06 488.637 2094.95C481.572 2111.13 474.672 2127.35 468.102 2143.73C463.317 2155.8 458.667 2167.9 454.422 2180.17M488.622 2094.98C513.417 2122.78 539.052 2149.74 565.632 2175.79M488.622 2094.98C481.557 2111.11 474.687 2127.38 468.102 2143.76C463.302 2155.8 458.667 2167.91 454.407 2180.18C483.447 2192.84 512.952 2204.3 542.847 2214.69C575.337 2225.88 608.217 2235.76 641.412 2244.55M488.622 2094.98C513.417 2122.75 539.052 2149.74 565.632 2175.79M488.622 2094.98C524.052 2105.8 559.812 2115.31 595.857 2123.73C634.932 2132.73 674.259 2140.44 713.789 2147C700.649 2165.74 687.326 2184.35 673.68 2202.71C663.159 2216.82 652.452 2230.82 641.412 2244.55M565.632 2175.79C590.097 2199.6 615.312 2222.6 641.412 2244.55M641.412 2244.55C676.922 2253.82 712.752 2261.83 748.811 2268.61C786.738 2275.67 824.9 2281.43 863.207 2285.92M641.412 2244.55C652.452 2230.82 663.159 2216.85 673.697 2202.7C687.323 2184.34 700.646 2165.73 713.789 2146.99M713.789 2146.99C738.608 2173.26 764.159 2198.82 790.575 2223.39C814.071 2245.1 838.236 2266.02 863.207 2285.92M713.789 2146.99C738.608 2173.26 764.159 2198.82 790.592 2223.39C814.071 2245.1 838.236 2266.02 863.207 2285.92M713.789 2146.99C755.784 2153.84 797.963 2159.39 840.261 2163.75C884.238 2168.18 928.319 2171.35 972.462 2173.26C953.504 2194.97 934.091 2216.27 914.021 2236.92C897.575 2253.79 880.718 2270.21 863.207 2285.92M1492.47 2135C1503.92 2152.97 1515.46 2170.86 1527.18 2188.66C1536.07 2202.13 1545.06 2215.57 1554.23 2228.84C1520.3 2239.22 1486.03 2248.27 1451.48 2256.24C1414.77 2264.54 1377.81 2271.51 1340.65 2277.33M1492.47 2135C1467.42 2161.78 1441.6 2187.81 1414.87 2212.89C1390.87 2235.24 1366.18 2256.81 1340.65 2277.33M1492.47 2135C1451.97 2143.06 1411.25 2149.84 1370.36 2155.42C1327.34 2161.2 1284.18 2165.69 1240.92 2168.99C1258.39 2189.89 1276.26 2210.4 1294.69 2230.41C1309.58 2246.5 1324.82 2262.22 1340.65 2277.33M1492.47 2135C1467.42 2161.78 1441.59 2187.81 1414.87 2212.89C1390.87 2235.24 1366.18 2256.81 1340.65 2277.33M1705.49 2077.32C1710.99 2092.9 1716.23 2108.62 1720.91 2124.47C1724.33 2136.14 1727.45 2147.88 1729.96 2159.75C1702.91 2173.08 1675.35 2185.22 1647.37 2196.31C1616.73 2208.36 1585.65 2219.15 1554.23 2228.86M1705.49 2077.32C1681.09 2105.35 1655.84 2132.57 1629.64 2158.81C1605.31 2183.06 1580.2 2206.47 1554.23 2228.86M1705.49 2077.32C1672.28 2088.99 1638.68 2099.34 1604.77 2108.62C1567.62 2118.64 1530.16 2127.41 1492.47 2135C1503.91 2152.97 1515.46 2170.88 1527.18 2188.69C1536.06 2202.15 1545.05 2215.57 1554.23 2228.86M1705.49 2077.32C1681.09 2105.35 1655.83 2132.57 1629.63 2158.81C1605.31 2183.06 1580.2 2206.47 1554.23 2228.86M1868.68 2004.99C1869.22 2019.08 1869.1 2033.2 1867.9 2047.26C1866.91 2058.18 1865.27 2069 1862.62 2079.63C1842.89 2094.15 1822.53 2107.74 1801.65 2120.46C1778.3 2134.58 1754.36 2147.64 1729.96 2159.76M1868.68 2004.99C1846.82 2033.07 1824.06 2060.41 1800.35 2086.89C1777.72 2112 1754.28 2136.35 1729.96 2159.76M1868.68 2004.99C1844.18 2018.55 1819.09 2030.94 1793.57 2042.39C1764.66 2055.22 1735.26 2066.77 1705.49 2077.33C1711 2092.92 1716.23 2108.6 1720.92 2124.46C1724.33 2136.11 1727.45 2147.87 1729.96 2159.76M1868.68 2004.99C1846.82 2033.07 1824.06 2060.41 1800.35 2086.89C1777.72 2112 1754.28 2136.35 1729.96 2159.76M1981.82 1927.31C1978.65 1940.6 1974.71 1953.66 1969.86 1966.39C1965.71 1977.09 1960.93 1987.52 1955.46 1997.6C1942.07 2011.77 1928.07 2025.36 1913.55 2038.35C1897.18 2052.85 1880.17 2066.6 1862.62 2079.63M1981.82 1927.31C1963.47 1954.48 1944.23 1980.96 1924.08 2006.75C1904.42 2031.79 1883.94 2056.07 1862.62 2079.63M1981.82 1927.31C1965.59 1941.19 1948.65 1954.12 1931.15 1966.29C1910.94 1980.2 1890.05 1993.03 1868.68 2004.98C1869.21 2019.09 1869.09 2033.2 1867.9 2047.28C1866.91 2058.17 1865.26 2069 1862.62 2079.63M1981.83 1927.3C1985.57 1911.33 1988.19 1895.11 1989.98 1878.78C1992.04 1859.08 1992.89 1839.32 1992.86 1819.49C2010.13 1809.35 2026.95 1798.42 2043.07 1786.43M1981.83 1927.3C2000.38 1899.7 2017.99 1871.42 2034.64 1842.57C2051.23 1813.62 2066.84 1784.1 2081.45 1754.04M1981.83 1927.3C1995.84 1915.22 2009.27 1902.47 2021.99 1888.98C2032.99 1877.22 2043.42 1864.95 2053.2 1852.1C2059.2 1837.47 2064.42 1822.55 2068.91 1807.37C2074.03 1789.84 2078.16 1772.05 2081.45 1754.04M2043.07 1786.43C2056.46 1776.39 2069.33 1765.68 2081.45 1754.04M2043.07 1786.43C2056.46 1776.38 2069.33 1765.64 2081.45 1754.06C2085.16 1733.21 2087.73 1712.16 2089.36 1691.06C2091.14 1666.62 2091.68 1642.11 2091.22 1617.64C2077.22 1652.13 2062.07 1686.1 2045.84 1719.56C2029.27 1753.46 2011.6 1786.77 1992.86 1819.49M2043.07 1786.43C2026.94 1798.39 2010.13 1809.34 1992.86 1819.49M1868.68 2004.97C1867.92 1986.95 1866.09 1969.03 1863.61 1951.17C1860.42 1928.78 1856.22 1906.55 1851.38 1884.48M1868.68 2004.97C1891.23 1975.82 1912.78 1945.93 1933.36 1915.28C1954.24 1884.03 1974.07 1852.1 1992.86 1819.48M1868.68 2004.97C1890.06 1993.04 1910.95 1980.19 1931.16 1966.28C1948.65 1954.11 1965.6 1941.17 1981.83 1927.29C1985.56 1911.34 1988.19 1895.13 1989.97 1878.79C1992.04 1859.08 1992.89 1839.32 1992.86 1819.48M1868.68 2004.97C1891.23 1975.82 1912.79 1945.93 1933.36 1915.28C1954.24 1884.03 1974.07 1852.1 1992.86 1819.48M1851.38 1884.48C1877.74 1874.81 1903.77 1864.23 1929.32 1852.48C1950.96 1842.42 1972.21 1831.52 1992.86 1819.48M1851.38 1884.48C1845.37 1857.47 1838.42 1830.68 1830.83 1804.09C1821.7 1772.35 1811.67 1740.89 1801.02 1709.66M1851.38 1884.48C1820.79 1895.61 1789.81 1905.55 1758.57 1914.53C1723.04 1924.66 1687.2 1933.61 1651.14 1941.57M1705.49 2077.3C1698.26 2056.93 1690.54 2036.76 1682.55 2016.72C1672.47 1991.5 1661.94 1966.47 1651.15 1941.58C1687.2 1933.6 1723.04 1924.68 1758.57 1914.55C1789.82 1905.53 1820.79 1895.62 1851.38 1884.47M1705.49 2077.3C1731.32 2047.48 1756.14 2016.78 1780.03 1985.33C1804.84 1952.46 1828.61 1918.84 1851.38 1884.47M1705.49 2077.3C1735.27 2066.77 1764.67 2055.19 1793.57 2042.37C1819.1 2030.92 1844.19 2018.52 1868.69 2004.94C1867.92 1986.94 1866.09 1969 1863.61 1951.15C1860.42 1928.75 1856.22 1906.55 1851.38 1884.47M1705.49 2077.3C1731.32 2047.48 1756.14 2016.78 1780.03 1985.33C1804.84 1952.5 1828.61 1918.84 1851.38 1884.47M1492.47 2134.99C1478 2112.25 1463.68 2089.41 1449.46 2066.47C1432.11 2038.52 1414.91 2010.44 1397.81 1982.32C1442.08 1977.45 1486.23 1971.55 1530.22 1964.52C1570.72 1957.92 1611.05 1950.36 1651.14 1941.58M1492.47 2134.99C1519.85 2105.55 1546.27 2075.22 1571.86 2044.15C1599.25 2010.74 1625.64 1976.52 1651.14 1941.58M1492.47 2134.99C1530.17 2127.37 1567.63 2118.65 1604.78 2108.57C1638.68 2099.32 1672.29 2088.94 1705.49 2077.31C1698.26 2056.95 1690.54 2036.79 1682.55 2016.74C1672.46 1991.51 1661.94 1966.48 1651.14 1941.58M1492.47 2134.99C1519.85 2105.55 1546.27 2075.22 1571.86 2044.15C1599.25 2010.74 1625.65 1976.52 1651.14 1941.58M1240.92 2168.99C1219.9 2143.76 1199.44 2118.08 1179.39 2092.06C1155.96 2061.6 1133.07 2030.67 1110.61 1999.44C1159.35 1998.78 1208.08 1997.01 1256.76 1994.14C1303.86 1991.27 1350.89 1987.37 1397.81 1982.3M1240.92 2168.99C1267.28 2140.96 1292.79 2112.14 1317.63 2082.71C1345.17 2049.92 1371.85 2016.43 1397.81 1982.3M1240.92 2168.99C1284.18 2165.68 1327.34 2161.21 1370.36 2155.44C1411.26 2149.84 1451.98 2143.06 1492.47 2134.99C1478 2112.24 1463.68 2089.39 1449.45 2066.47C1432.11 2038.51 1414.91 2010.42 1397.81 1982.3M1240.92 2168.99C1267.28 2140.96 1292.79 2112.14 1317.63 2082.71C1345.18 2049.92 1371.86 2016.43 1397.81 1982.3M972.459 2173.25C946.88 2145.77 922.104 2117.52 897.957 2088.71C870.884 2056.29 844.617 2023.2 819.021 1989.58M972.459 2173.25C994.983 2147.37 1016.83 2120.93 1038.24 2094.12C1062.95 2063 1087.03 2031.42 1110.62 1999.43C1061.52 2000 1012.42 1999.5 963.339 1997.89C915.177 1996.19 867.062 1993.45 819.021 1989.58M972.459 2173.25C928.319 2171.31 884.237 2168.17 840.263 2163.73C797.946 2159.39 755.783 2153.81 713.787 2146.97C730.188 2123.57 746.28 2099.93 762.21 2076.16C781.395 2047.48 800.307 2018.59 819.021 1989.58M713.795 2146.96C686.415 2117.82 659.967 2087.78 634.317 2057.05C606.612 2023.69 579.852 1989.53 553.977 1954.68M713.795 2146.96C730.194 2123.53 746.288 2099.91 762.201 2076.15C781.401 2047.45 800.312 2018.57 819.041 1989.56M713.795 2146.96C674.265 2140.41 634.917 2132.7 595.857 2123.7C559.827 2115.26 524.037 2105.76 488.622 2094.93C497.817 2073.93 507.312 2053.06 516.972 2032.29C529.077 2006.31 541.437 1980.46 553.977 1954.68M553.977 1954.68C596.307 1962.55 638.832 1969.23 681.497 1974.91C727.224 1980.93 773.087 1985.74 819.041 1989.56M488.622 2094.94C462.147 2065.13 436.692 2034.39 412.137 2002.93C386.427 1969.83 361.767 1935.9 338.082 1901.25M488.622 2094.94C497.817 2073.95 507.312 2053.08 516.972 2032.28C529.077 2006.32 541.437 1980.46 553.977 1954.69C515.427 1947.45 477.072 1939.19 438.972 1929.78C405.072 1921.29 371.397 1911.88 338.082 1901.25M488.622 2094.94C456.567 2085.04 424.812 2074.08 393.537 2061.87C365.697 2050.88 338.232 2038.87 311.337 2025.67C313.707 2007.01 317.037 1988.52 320.907 1970.12C325.872 1946.99 331.707 1924.02 338.082 1901.25M311.337 2025.66C287.772 1996.23 265.227 1966.02 243.642 1935.03C221.607 1903.27 200.637 1870.75 180.702 1837.59M311.337 2025.66C313.707 2007.01 317.037 1988.5 320.907 1970.11C325.872 1946.96 331.707 1924.02 338.082 1901.25C309.042 1891.9 280.317 1881.63 252.027 1870.17C227.832 1860.26 203.997 1849.51 180.702 1837.59M311.337 2025.66C287.772 1996.23 265.227 1966.02 243.627 1935.03C221.607 1903.27 200.637 1870.75 180.702 1837.59M311.337 2025.66C287.712 2013.97 264.552 2001.3 242.022 1987.52C222.432 1975.44 203.382 1962.51 185.022 1948.58C182.292 1932.11 180.717 1915.48 179.952 1898.78C179.112 1878.38 179.502 1857.95 180.702 1837.59M185.022 1948.6C165.357 1920.49 146.652 1891.72 128.922 1862.3C111.162 1832.66 94.4374 1802.44 78.7024 1771.65M185.022 1948.6C182.292 1932.11 180.717 1915.47 179.952 1898.79C179.112 1878.4 179.487 1857.98 180.702 1837.59C161.082 1827.47 141.897 1816.52 123.357 1804.49C107.892 1794.34 92.9374 1783.49 78.7024 1771.65M185.022 1948.6C169.152 1936.43 153.867 1923.56 139.272 1909.83C126.702 1897.86 114.702 1885.28 103.392 1872.06C97.7973 1857.14 93.1024 1841.91 89.1724 1826.45C84.6724 1808.39 81.2524 1790.09 78.7024 1771.65M35.3524 1678.39C22.3473 1647.5 10.3623 1616.18 -0.497692 1584.45C1.28731 1606.87 4.01737 1629.23 7.81237 1651.4C11.2324 1670.94 15.4773 1690.3 20.6373 1709.44C28.1373 1720.11 36.3424 1730.19 45.1174 1739.78C55.6324 1751.13 66.8972 1761.7 78.7172 1771.63M35.3524 1678.39C48.7474 1709.97 63.2372 1741.08 78.7172 1771.63M35.3524 1678.39C22.3473 1647.5 10.3623 1616.18 -0.512707 1584.45C9.49229 1592.77 20.1573 1600.22 31.1673 1607.08C45.2373 1615.77 59.8474 1623.44 74.7724 1630.52C73.2424 1655.82 72.7024 1681.21 73.4524 1706.57C74.1724 1728.34 75.8372 1750.04 78.7172 1771.63M74.7724 1630.51C90.0424 1666 106.467 1700.93 124.002 1735.33C141.822 1770.05 160.707 1804.13 180.702 1837.59M74.7724 1630.51C73.2424 1655.82 72.7024 1681.2 73.4524 1706.54C74.1574 1728.32 75.8372 1750.06 78.7172 1771.64C92.9522 1783.49 107.922 1794.36 123.357 1804.48C141.912 1816.51 161.097 1827.47 180.702 1837.59M74.7724 1630.51C93.5524 1639.31 112.752 1647.08 132.177 1654.22C156.132 1662.9 180.417 1670.61 204.882 1677.63C198.507 1706.23 192.957 1735.02 188.607 1764.03C185.007 1788.44 182.262 1812.97 180.702 1837.59M204.882 1677.62C224.952 1716.35 246.132 1754.48 268.392 1791.97C290.577 1829.08 313.797 1865.53 338.082 1901.24M204.882 1677.62C198.507 1706.24 192.972 1735.04 188.607 1764.06C185.007 1788.45 182.262 1812.97 180.702 1837.58C203.997 1849.51 227.832 1860.26 252.027 1870.16C280.317 1881.64 309.057 1891.89 338.082 1901.24M204.882 1677.62C234.297 1685.97 263.982 1693.36 293.802 1700.05C328.767 1707.82 363.897 1714.61 399.162 1720.73C386.802 1752.96 374.982 1785.44 363.912 1818.17C354.672 1845.64 345.972 1873.33 338.082 1901.24M399.162 1720.73C423.417 1761.69 448.647 1802.07 474.867 1841.74C500.292 1880.07 526.647 1917.76 553.962 1954.71M399.162 1720.73C386.787 1752.97 374.982 1785.43 363.912 1818.19C354.657 1845.65 345.972 1873.34 338.082 1901.25C371.397 1911.89 405.072 1921.31 438.972 1929.77C477.072 1939.23 515.427 1947.46 553.962 1954.71M399.162 1720.73C439.407 1727.62 479.787 1733.61 520.257 1738.87C565.197 1744.61 610.257 1749.48 655.392 1753.61C636.777 1789.54 618.312 1825.56 600.087 1861.71C584.532 1892.6 569.142 1923.59 553.962 1954.71M655.392 1753.63C681.978 1795.31 709.31 1836.51 737.462 1877.16M655.392 1753.63C636.762 1789.57 618.312 1825.57 600.087 1861.7C584.517 1892.61 569.127 1923.61 553.962 1954.71C596.292 1962.58 638.817 1969.26 681.491 1974.94C727.215 1980.94 773.079 1985.78 819.033 1989.59M655.392 1753.63C681.993 1795.31 709.325 1836.51 737.462 1877.16M655.392 1753.63C704.148 1758.02 752.964 1761.57 801.842 1764.34C853.173 1767.18 904.548 1769.18 955.955 1770.41C932.154 1809.54 908.154 1848.51 883.899 1887.32C862.49 1921.55 840.897 1955.65 819.033 1989.59M737.462 1877.16C763.913 1915.19 791.061 1952.71 819.033 1989.59M1269.6 1767.68C1292.17 1805.98 1314.84 1844.25 1337.65 1882.42C1357.59 1915.78 1377.63 1949.1 1397.82 1982.29C1350.89 1987.37 1303.86 1991.28 1256.76 1994.12C1208.09 1997 1159.36 1998.74 1110.62 1999.42M1269.6 1767.68C1243.07 1808.82 1216 1849.65 1188.32 1890.02C1162.97 1926.89 1137.1 1963.38 1110.62 1999.42M1269.6 1767.68C1217.56 1769.78 1165.5 1771.04 1113.41 1771.53C1060.92 1771.98 1008.43 1771.59 955.947 1770.4C982.029 1811.15 1008.57 1851.59 1035.63 1891.66C1060.16 1927.93 1085.11 1963.87 1110.62 1999.42M1269.6 1767.68C1243.07 1808.82 1216 1849.65 1188.31 1890.02C1162.97 1926.89 1137.1 1963.38 1110.62 1999.42M1560.66 1746.01C1577.62 1780.93 1594.3 1816.01 1610.61 1851.29C1624.44 1881.22 1637.99 1911.31 1651.14 1941.59C1611.05 1950.35 1570.72 1957.92 1530.23 1964.5C1486.24 1971.55 1442.08 1977.45 1397.81 1982.31M1560.66 1746.01C1534.46 1787.66 1507.45 1828.77 1479.56 1869.3C1453.11 1907.57 1425.89 1945.26 1397.81 1982.31M1560.66 1746.01C1513.86 1751.16 1466.96 1755.48 1420.01 1759.02C1369.92 1762.73 1319.77 1765.59 1269.59 1767.69C1292.16 1805.99 1314.84 1844.27 1337.65 1882.44C1357.59 1915.79 1377.63 1949.1 1397.81 1982.31M1560.66 1746.01C1534.46 1787.66 1507.44 1828.77 1479.55 1869.3C1453.11 1907.57 1425.89 1945.26 1397.81 1982.31M1801.02 1709.66C1777.78 1750.16 1753.52 1790.02 1728.24 1829.21C1703.52 1867.35 1677.84 1904.84 1651.14 1941.57M1801.02 1709.66C1763.63 1717.07 1726.07 1723.53 1688.4 1729.29C1645.93 1735.71 1603.34 1741.21 1560.67 1745.97C1577.62 1780.94 1594.3 1816.01 1610.62 1851.27C1624.44 1881.22 1637.99 1911.3 1651.14 1941.57M1801.02 1709.66C1777.78 1750.16 1753.52 1790.02 1728.24 1829.21C1703.52 1867.35 1677.84 1904.84 1651.14 1941.57M1977.39 1664.88C1982.3 1692.58 1986.32 1720.4 1989.09 1748.38C1991.36 1772.03 1992.74 1795.74 1992.86 1819.48C1972.21 1831.53 1950.96 1842.41 1929.32 1852.46C1903.77 1864.22 1877.74 1874.81 1851.38 1884.49M1977.39 1664.88C1958.62 1702.82 1938.72 1740.16 1917.72 1776.83C1896.68 1813.41 1874.57 1849.3 1851.38 1884.49M1977.39 1664.88C1950.98 1673.48 1924.29 1681.04 1897.42 1687.96C1865.48 1696.06 1833.32 1703.23 1801.02 1709.68C1811.68 1740.92 1821.7 1772.34 1830.83 1804.09C1838.42 1830.68 1845.37 1857.46 1851.38 1884.49M1977.39 1664.88C1958.62 1702.82 1938.71 1740.16 1917.72 1776.83C1896.68 1813.41 1874.57 1849.3 1851.38 1884.49M2154.05 1572.53C2151.64 1594.25 2148.35 1615.85 2144.08 1637.27C2140.21 1656.28 2135.58 1675.11 2130.13 1693.69C2123.98 1703.89 2117.17 1713.66 2109.81 1722.97C2101.03 1733.97 2091.52 1744.29 2081.44 1754.06M2154.05 1572.53C2144.22 1603.25 2133.33 1633.54 2121.43 1663.46C2109.13 1694.12 2095.79 1724.32 2081.44 1754.06M2154.05 1572.53C2145.98 1580.6 2137.21 1587.87 2128.04 1594.59C2116.28 1603.13 2103.91 1610.68 2091.22 1617.64C2091.67 1642.14 2091.14 1666.64 2089.35 1691.07C2087.72 1712.18 2085.16 1733.2 2081.44 1754.06M2154.05 1572.53C2144.22 1603.25 2133.33 1633.54 2121.42 1663.46C2109.13 1694.12 2095.79 1724.32 2081.44 1754.06M-35.6578 1230.25C-32.0278 1261.54 -27.1528 1292.65 -21.2128 1323.56C-14.7028 1356.83 -6.96277 1389.82 1.87223 1422.51M-35.6578 1230.25C-40.1578 1259.81 -43.5927 1289.51 -45.8577 1319.33C-47.8227 1346.64 -48.7977 1374.02 -48.6627 1401.42C-42.2577 1405.42 -35.4478 1408.73 -28.5178 1411.66C-18.5878 1415.86 -8.40277 1419.35 1.87223 1422.51M-35.6578 1230.25C-32.0278 1261.54 -27.1528 1292.65 -21.1978 1323.56C-14.7028 1356.83 -6.96277 1389.82 1.87223 1422.51M-35.6578 1230.25C-25.6528 1229.36 -15.6177 1228.61 -5.58275 1227.95C8.63725 1227.05 22.8572 1226.28 37.0922 1225.59C28.5422 1259.44 21.0873 1293.57 14.9373 1327.96C9.41735 1359.31 5.00722 1390.82 1.87223 1422.51M37.0922 1225.59C45.0872 1261.54 54.3573 1297.2 64.7223 1332.51C76.0023 1370.45 88.4973 1407.99 102.117 1445.12M37.0922 1225.59C28.5422 1259.43 21.0873 1293.58 14.9373 1327.97C9.41735 1359.32 5.00722 1390.84 1.87223 1422.51C16.0322 1426.79 30.3574 1430.43 44.7574 1433.73C63.7774 1438.04 82.9173 1441.74 102.117 1445.12M37.0922 1225.59C56.2022 1224.66 75.3123 1223.88 94.4373 1223.16C118.977 1222.26 143.532 1221.48 168.072 1220.76C154.302 1259.17 141.567 1297.92 130.032 1337.08C119.622 1372.79 110.247 1408.8 102.117 1445.12M168.072 1220.75C181.677 1261.45 196.452 1301.67 212.247 1341.5M168.072 1220.75C154.317 1259.16 141.567 1297.92 130.032 1337.06C119.622 1372.8 110.247 1408.8 102.132 1445.12C126.537 1449.36 151.032 1453.05 175.587 1456.39C205.737 1460.46 235.947 1464.03 266.202 1467.23M168.072 1220.75C198.402 1219.87 228.747 1219.15 259.107 1218.45C295.362 1217.64 331.587 1216.94 367.842 1216.33C348.372 1259.07 329.742 1302.16 312.072 1345.72C295.887 1385.87 280.527 1426.35 266.202 1467.23M212.247 1341.5C229.137 1383.9 247.167 1425.8 266.202 1467.23M212.247 1341.5C229.152 1383.9 247.167 1425.8 266.202 1467.23M367.857 1216.32C387.492 1261.13 408.042 1305.53 429.402 1349.52C451.797 1395.46 475.047 1440.97 499.107 1486.04M367.857 1216.32C348.372 1259.06 329.742 1302.17 312.087 1345.72C295.887 1385.86 280.527 1426.35 266.202 1467.22C302.172 1471.02 338.202 1474.28 374.262 1477.23C415.842 1480.58 457.467 1483.5 499.107 1486.04M367.857 1216.32C387.492 1261.13 408.072 1305.53 429.417 1349.52C451.797 1395.46 475.047 1440.97 499.107 1486.04M367.857 1216.32C409.782 1215.62 451.722 1214.98 493.647 1214.45C540.687 1213.84 587.727 1213.34 634.752 1212.91C610.272 1259.2 586.332 1305.82 563.022 1352.75C541.152 1396.89 519.792 1441.32 499.107 1486.04M634.752 1212.92C659.502 1260.65 684.8 1308.09 710.577 1355.24C736.892 1403.26 763.703 1451 791.004 1498.44M634.752 1212.92C610.272 1259.22 586.347 1305.81 563.022 1352.75C541.152 1396.89 519.807 1441.31 499.107 1486.03C545.697 1488.84 592.347 1491.21 638.982 1493.23C689.642 1495.36 740.33 1497.09 791.004 1498.44M634.752 1212.92C659.517 1260.65 684.8 1308.09 710.592 1355.24C736.892 1403.26 763.703 1451 791.004 1498.44M634.752 1212.92C685.91 1212.45 737.057 1212.07 788.219 1211.81C842.169 1211.52 896.13 1211.28 950.081 1211.17C922.748 1259.66 895.584 1308.21 868.617 1356.91C842.564 1403.97 816.695 1451.14 791.004 1498.44M1279.78 1211.46C1306.62 1259.49 1333.17 1307.73 1359.43 1356.11C1384.57 1402.53 1409.44 1449.1 1433.99 1495.84C1381.9 1497.66 1329.8 1499.06 1277.69 1500.06C1223.52 1501.08 1169.35 1501.73 1115.17 1501.96M1279.78 1211.46C1252.76 1260.22 1225.51 1308.84 1198.05 1357.34C1170.64 1405.69 1143.02 1453.9 1115.17 1501.96M1279.78 1211.46C1225.06 1211.23 1170.35 1211.11 1115.63 1211.05C1060.44 1210.99 1005.26 1211.05 950.082 1211.17C977.535 1260.05 1005.08 1308.87 1032.76 1357.6C1060.12 1405.81 1087.59 1453.93 1115.17 1501.96M1279.78 1211.46C1252.76 1260.22 1225.51 1308.84 1198.04 1357.34C1170.64 1405.69 1143.02 1453.9 1115.17 1501.96M1584.72 1213.7C1607.98 1259.16 1630.6 1304.94 1652.51 1351.06C1672.92 1394.18 1692.7 1437.62 1711.73 1481.41C1667.78 1484.54 1623.79 1487.2 1579.79 1489.51M1584.72 1213.7C1561.17 1260.8 1536.99 1307.54 1512.22 1353.99C1486.74 1401.61 1460.66 1448.9 1433.98 1495.85M1584.72 1213.7C1535.67 1213.18 1486.63 1212.74 1437.59 1212.36C1384.98 1211.98 1332.38 1211.69 1279.77 1211.45C1306.62 1259.51 1333.17 1307.71 1359.43 1356.12C1384.58 1402.54 1409.43 1449.11 1433.98 1495.85M1584.72 1213.7C1561.17 1260.8 1536.99 1307.54 1512.21 1353.99C1486.74 1401.61 1460.66 1448.9 1433.98 1495.85M1579.79 1489.51C1531.2 1492.05 1482.6 1494.13 1433.98 1495.85M1579.79 1489.51C1531.2 1492.03 1482.6 1494.12 1433.98 1495.85C1456.79 1539.32 1479.33 1582.98 1501.53 1626.82C1521.54 1666.38 1541.28 1706.07 1560.67 1745.98M1579.79 1489.51C1623.79 1487.2 1667.78 1484.52 1711.73 1481.39M2128.47 1226.89C2135.78 1259.56 2141.99 1292.43 2146.91 1325.53C2151.31 1355.74 2154.63 1386.06 2156.68 1416.53C2144.93 1420.78 2132.95 1424.33 2120.9 1427.57C2104.61 1431.87 2088.18 1435.54 2071.68 1438.89M2128.47 1226.89C2121.83 1261.55 2113.89 1295.95 2104.84 1330.03C2095 1366.68 2083.9 1402.99 2071.68 1438.89M2128.47 1226.89C2112.12 1225.97 2095.75 1225.19 2079.38 1224.5C2057.87 1223.57 2036.35 1222.79 2014.84 1222.07C2027.1 1259.21 2038.29 1296.7 2048.23 1334.59C2057.18 1369.08 2065.08 1403.86 2071.68 1438.89M2128.47 1226.89C2121.82 1261.55 2113.89 1295.95 2104.84 1330.03C2095 1366.68 2083.9 1402.99 2071.68 1438.89M2188.1 1231.45C2191.72 1259.9 2194.33 1288.45 2195.82 1317.11C2197.09 1343.41 2197.43 1369.74 2196.7 1396.07C2191.89 1399.92 2186.62 1403.11 2181.19 1405.96C2173.27 1410.07 2165.04 1413.46 2156.69 1416.5M2188.1 1231.45C2185.37 1261.51 2181.45 1291.44 2176.49 1321.19M2188.1 1231.45C2180.08 1230.55 2172.04 1229.86 2163.99 1229.23C2152.16 1228.31 2140.32 1227.56 2128.48 1226.87C2135.78 1259.53 2141.99 1292.41 2146.92 1325.53C2151.31 1355.71 2154.63 1386.06 2156.69 1416.5M2156.69 1416.5C2164.4 1384.97 2171.05 1353.21 2176.49 1321.19M2156.69 1416.5C2164.4 1384.97 2171.05 1353.21 2176.49 1321.19M2188.1 1231.43C2184.1 1200.75 2178.93 1170.24 2172.71 1139.96M2188.1 1231.43C2190.53 1203.79 2191.96 1176.07 2192.27 1148.32M2188.1 1231.43C2180.08 1230.52 2172.04 1229.83 2163.99 1229.19C2152.16 1228.28 2140.32 1227.53 2128.47 1226.84C2134.46 1195.12 2139.36 1163.2 2142.96 1131.09C2146.12 1102.1 2148.22 1073.03 2149.06 1043.88M2172.71 1139.96C2165.97 1107.63 2158.05 1075.6 2149.06 1043.88M2172.71 1139.96C2165.97 1107.63 2158.05 1075.6 2149.06 1043.88M2149.06 1043.88C2157.67 1048.24 2166.07 1053.04 2173.97 1058.62C2179.7 1062.76 2185.14 1067.29 2189.98 1072.48C2191.74 1097.71 2192.47 1123 2192.27 1148.32M2128.47 1226.86C2120.46 1191.56 2111.18 1156.59 2100.78 1121.94C2089.61 1085.07 2077.19 1048.63 2063.65 1012.64M2128.47 1226.86C2134.46 1195.15 2139.35 1163.21 2142.96 1131.1C2146.12 1102.11 2148.22 1073.04 2149.06 1043.89C2137.33 1038.04 2125.25 1033.02 2112.99 1028.47C2096.76 1022.48 2080.27 1017.33 2063.65 1012.64M2128.47 1226.86C2120.46 1191.56 2111.18 1156.59 2100.78 1121.94C2089.6 1085.09 2077.19 1048.66 2063.65 1012.64M2128.47 1226.86C2112.12 1225.93 2095.75 1225.15 2079.38 1224.46C2057.87 1223.53 2036.36 1222.75 2014.84 1222.04C2025.72 1185.88 2035.57 1149.41 2044.15 1112.62C2051.77 1079.52 2058.36 1046.2 2063.65 1012.64M2014.84 1222.02C2001.53 1182.04 1987.01 1142.48 1971.42 1103.38C1954.89 1062.14 1937.18 1021.44 1918.41 981.219M2014.84 1222.02C2025.72 1185.87 2035.57 1149.42 2044.15 1112.61C2051.77 1079.52 2058.36 1046.19 2063.65 1012.63C2042.35 1006.65 2020.84 1001.47 1999.25 996.758C1972.42 990.945 1945.46 985.847 1918.41 981.219M2014.84 1222.02C2001.53 1182.04 1987.01 1142.48 1971.42 1103.38C1954.88 1062.14 1937.18 1021.44 1918.41 981.219M2014.84 1222.02C1987.7 1221.14 1960.56 1220.37 1933.42 1219.65C1900.4 1218.83 1867.38 1218.08 1834.35 1217.42C1850.99 1176.81 1866.76 1135.84 1881.49 1094.48C1894.74 1057.07 1907.12 1019.32 1918.41 981.219M1584.72 1213.68C1560.46 1166.44 1535.52 1119.55 1509.94 1073.04C1484.03 1026.04 1457.45 979.431 1430.24 933.23M1584.72 1213.68C1606.95 1169.1 1628.6 1124.22 1649.58 1078.98C1668.83 1037.4 1687.51 995.546 1705.48 953.333C1661.93 948.988 1618.31 945.275 1574.66 942.03C1526.56 938.537 1478.41 935.622 1430.24 933.23M1584.72 1213.68C1560.46 1166.44 1535.52 1119.57 1509.93 1073.04C1484.02 1026.04 1457.45 979.431 1430.24 933.23M1584.72 1213.68C1535.67 1213.13 1486.63 1212.69 1437.59 1212.33C1384.98 1211.95 1332.38 1211.65 1279.77 1211.43C1306.04 1163.99 1332.09 1116.41 1357.9 1068.7C1382.24 1023.65 1406.36 978.496 1430.24 933.23M1279.78 1211.43C1252.6 1162.83 1225.13 1114.4 1197.36 1066.16C1170.09 1018.83 1142.55 971.686 1114.69 924.711M1279.78 1211.43C1306.04 1163.98 1332.09 1116.38 1357.9 1068.69C1382.24 1023.66 1406.36 978.502 1430.24 933.204C1378.68 930.703 1327.11 928.779 1275.51 927.349C1221.92 925.92 1168.31 925.04 1114.69 924.711M1279.78 1211.43C1252.59 1162.83 1225.12 1114.43 1197.35 1066.16C1170.09 1018.83 1142.55 971.686 1114.69 924.711M1279.78 1211.43C1225.06 1211.21 1170.35 1211.07 1115.62 1211.01C1060.44 1210.99 1005.26 1211.01 950.078 1211.15C977.514 1162.53 1005.15 1114.01 1032.96 1065.61C1060.01 1018.52 1087.26 971.576 1114.69 924.711M634.752 1212.87C611.202 1167.34 588.132 1121.59 565.617 1075.53C544.827 1032.91 524.517 990.018 504.777 946.85C550.932 942.945 597.147 939.646 643.392 936.841C693.543 933.872 743.717 931.48 793.917 929.61M634.752 1212.87C660.087 1165.06 685.989 1117.57 712.469 1070.42C739.056 1023.15 766.206 976.188 793.917 929.61M634.752 1212.87C685.914 1212.4 737.061 1212.05 788.225 1211.74C842.171 1211.47 896.136 1211.25 950.082 1211.14C923.178 1163.16 896.379 1115.15 869.687 1067.06C844.319 1021.31 819.057 975.473 793.917 929.61M634.752 1212.87C660.087 1165.06 686.006 1117.57 712.469 1070.44C739.056 1023.15 766.206 976.188 793.917 929.61M367.842 1216.29C349.602 1174.52 332.172 1132.39 315.687 1089.88C300.792 1051.28 286.677 1012.37 273.582 973.1C309.267 967.845 345.072 963.222 380.907 959.122C422.142 954.472 463.422 950.427 504.762 946.877M367.842 1216.29C388.527 1171.14 410.127 1126.42 432.567 1082.15C455.772 1036.58 479.847 991.482 504.762 946.877M367.842 1216.29C409.782 1215.58 451.722 1214.95 493.647 1214.42C540.687 1213.82 587.727 1213.29 634.737 1212.88C611.187 1167.37 588.117 1121.61 565.602 1075.55C544.812 1032.92 524.502 990.051 504.762 946.877M367.842 1216.29C388.527 1171.14 410.127 1126.42 432.582 1082.15C455.772 1036.58 479.847 991.482 504.762 946.877M168.072 1220.73C155.667 1183.35 144.252 1145.62 134.082 1107.55C125.007 1073.29 116.937 1038.75 110.127 1003.93C134.412 998.037 158.877 992.886 183.402 988.203C213.357 982.529 243.432 977.572 273.582 973.082M168.072 1220.73C182.967 1179.52 199.032 1138.76 216.132 1098.46C234.177 1056.15 253.377 1014.37 273.582 973.082M168.072 1220.73C198.402 1219.85 228.747 1219.1 259.092 1218.42C295.347 1217.62 331.587 1216.93 367.842 1216.3C349.602 1174.54 332.172 1132.4 315.672 1089.9C300.792 1051.28 286.677 1012.36 273.582 973.082M-35.6578 1230.21C-38.8978 1201.5 -41.1178 1172.69 -42.1528 1143.82C-43.0078 1117.54 -42.8728 1091.26 -41.6578 1065.01C-35.2228 1059.57 -28.2477 1054.88 -21.0627 1050.66C-11.1477 1044.89 -0.827681 1039.98 9.68732 1035.5M-35.6578 1230.21C-30.7078 1198.3 -24.5577 1166.61 -17.3127 1135.15C-9.49768 1101.61 -0.452679 1068.38 9.68732 1035.5M-35.6578 1230.21C-25.6378 1229.3 -15.6027 1228.58 -5.58275 1227.92C8.65225 1226.98 22.8722 1226.24 37.1072 1225.52C29.9072 1192.62 23.7722 1159.49 18.9722 1126.1C14.7272 1096.04 11.5623 1065.84 9.68732 1035.5M2154.05 1572.51C2156.67 1548.06 2158.17 1523.53 2158.69 1498.97C2159.18 1471.46 2158.45 1443.96 2156.69 1416.51C2165.04 1413.45 2173.27 1410.07 2181.19 1405.97C2186.62 1403.12 2191.89 1399.91 2196.7 1396.08M2154.05 1572.51C2163.43 1542.92 2171.8 1513.04 2179.11 1482.9M2154.05 1572.51C2160.4 1566.09 2166.25 1559.2 2171.43 1551.78C2175.59 1545.69 2179.26 1539.3 2182.34 1532.59C2186.3 1511.14 2189.45 1489.58 2191.83 1467.93C2194.37 1444.05 2195.97 1420.08 2196.7 1396.08M2154.05 1572.51C2163.43 1542.92 2171.8 1513.07 2179.11 1482.9M2196.7 1396.08C2191.86 1425.22 2185.97 1454.17 2179.11 1482.9M2091.22 1617.63C2090.6 1589.51 2088.67 1561.45 2085.72 1533.51C2082.26 1501.79 2077.49 1470.22 2071.68 1438.87C2088.18 1435.54 2104.61 1431.85 2120.9 1427.56C2132.96 1424.33 2144.93 1420.76 2156.69 1416.5M2091.22 1617.63C2104.7 1584.17 2117.08 1550.27 2128.29 1515.94C2138.88 1483.15 2148.38 1449.99 2156.69 1416.5M2091.22 1617.63C2103.92 1610.68 2116.28 1603.09 2128.05 1594.58C2137.22 1587.86 2145.98 1580.58 2154.05 1572.51C2156.67 1548.08 2158.16 1523.56 2158.69 1498.97C2159.18 1471.45 2158.44 1443.96 2156.69 1416.5M1977.39 1664.88C1971.58 1632.68 1964.56 1600.71 1956.65 1568.99C1947.53 1532.79 1937.24 1496.95 1926.07 1461.35C1953.17 1458.05 1980.22 1454.42 2007.2 1450.25C2028.77 1446.89 2050.28 1443.16 2071.68 1438.87M1977.39 1664.88C1995.74 1627.56 2012.98 1589.72 2029.03 1551.34C2044.4 1514.29 2058.66 1476.82 2071.68 1438.87M1977.39 1664.88C1999.06 1657.77 2020.5 1650.02 2041.58 1641.24C2058.46 1634.13 2075.09 1626.38 2091.23 1617.63C2090.6 1589.51 2088.67 1561.45 2085.72 1533.52C2082.26 1501.79 2077.49 1470.22 2071.68 1438.87M1977.39 1664.88C1995.74 1627.56 2012.98 1589.72 2029.03 1551.34C2044.4 1514.33 2058.66 1476.82 2071.68 1438.87M1560.67 1745.98C1587.58 1703.03 1613.62 1659.52 1638.81 1615.5C1664 1571.29 1688.31 1526.58 1711.73 1481.39M1560.67 1745.98C1603.34 1741.21 1645.93 1735.7 1688.4 1729.27C1726.07 1723.52 1763.63 1717.06 1801.03 1709.67C1788.58 1673.37 1775.29 1637.4 1761.37 1601.65C1745.56 1561.25 1728.96 1521.2 1711.73 1481.39M1560.67 1745.98C1587.58 1703.03 1613.63 1659.52 1638.82 1615.5C1664 1571.29 1688.31 1526.58 1711.73 1481.39M955.94 1770.39C928.013 1726.64 900.588 1682.56 873.624 1638.16C845.591 1591.91 818.061 1545.32 791.003 1498.42M955.94 1770.39C982.098 1727.38 1007.99 1684.22 1033.69 1640.91C1061.08 1594.75 1088.23 1548.41 1115.17 1501.94C1060.55 1502.16 1005.92 1501.97 951.281 1501.42C897.849 1500.8 844.416 1499.81 791.003 1498.42M955.94 1770.39C904.547 1769.15 853.173 1767.14 801.842 1764.3C752.966 1761.52 704.147 1757.99 655.392 1753.6C676.526 1712.88 697.875 1672.26 719.391 1631.76C743.067 1587.21 766.944 1542.75 791.003 1498.42M655.392 1753.58C627.852 1710.23 601.122 1666.38 575.157 1622.01C548.997 1577.15 523.647 1531.82 499.107 1486M655.392 1753.58C676.533 1712.85 697.865 1672.24 719.381 1631.72C743.076 1587.19 766.952 1542.76 791.007 1498.42C740.334 1497.06 689.645 1495.34 638.982 1493.21C592.347 1491.18 545.712 1488.84 499.107 1486M655.392 1753.58C610.272 1749.45 565.212 1744.58 520.257 1738.82C479.787 1733.55 439.407 1727.57 399.162 1720.7C413.532 1683.36 428.637 1646.29 444.267 1609.5C461.907 1568.03 480.252 1526.89 499.107 1486M399.162 1720.7C374.772 1679.32 351.357 1637.32 328.977 1594.74M399.162 1720.7C413.532 1683.36 428.622 1646.32 444.267 1609.49C461.907 1568.04 480.237 1526.9 499.107 1486.04C457.467 1483.46 415.842 1480.59 374.262 1477.22C338.202 1474.28 302.172 1470.98 266.202 1467.21M399.162 1720.7C363.897 1714.58 328.752 1707.78 293.802 1700.04C263.967 1693.34 234.297 1685.96 204.882 1677.6C212.397 1644.27 221.052 1611.2 230.517 1578.39C241.422 1541.01 253.392 1503.97 266.202 1467.21M328.977 1594.74C307.032 1552.77 286.062 1510.25 266.202 1467.21M328.977 1594.74C307.017 1552.77 286.062 1510.25 266.202 1467.21M204.882 1677.61C185.157 1639.31 166.542 1600.47 149.082 1561.04M204.882 1677.61C212.397 1644.26 221.037 1611.21 230.517 1578.37C241.422 1540.99 253.392 1503.96 266.202 1467.21C235.947 1464 205.737 1460.45 175.587 1456.38C151.032 1453.04 126.537 1449.34 102.132 1445.12M204.882 1677.61C185.157 1639.31 166.527 1600.47 149.082 1561.04M204.882 1677.61C180.402 1670.6 156.117 1662.89 132.177 1654.21C112.722 1647.08 93.5374 1639.31 74.7574 1630.51C76.6174 1601.29 79.7972 1572.21 83.9672 1543.23C88.8272 1510.31 94.9624 1477.59 102.132 1445.12M149.082 1561.04C132.282 1522.87 116.592 1484.24 102.132 1445.12M74.7424 1630.51C59.9974 1595.97 46.3474 1560.95 33.8824 1525.49M74.7424 1630.51C76.6174 1601.29 79.7824 1572.2 83.9524 1543.25C88.8124 1510.31 94.9474 1477.6 102.132 1445.11C82.9324 1441.74 63.7924 1438.05 44.7574 1433.72C30.3574 1430.44 16.0322 1426.78 1.87223 1422.51M74.7424 1630.51C59.9974 1595.97 46.3324 1560.95 33.8824 1525.49M74.7424 1630.51C59.8474 1623.44 45.2223 1615.75 31.1373 1607.09C20.1273 1600.24 9.49229 1592.78 -0.512707 1584.43C-2.44771 1559.06 -3.18267 1533.6 -2.91268 1508.14C-2.50768 1479.53 -0.84277 1450.97 1.87223 1422.51M33.8824 1525.49C22.0774 1491.55 11.3522 1457.19 1.87223 1422.51M33.8824 1525.49C22.0624 1491.55 11.3522 1457.19 1.87223 1422.51M-0.527721 1584.45C-10.9077 1553.84 -20.2678 1522.87 -28.5178 1491.58C-36.2728 1461.77 -43.0227 1431.7 -48.6627 1401.42M-0.527721 1584.45C-2.44772 1559.05 -3.18267 1533.62 -2.91268 1508.16C-2.50768 1479.55 -0.84277 1450.99 1.87223 1422.5C-8.40277 1419.34 -18.6028 1415.86 -28.5178 1411.66C-35.4478 1408.71 -42.2577 1405.41 -48.6627 1401.42M-0.527721 1584.45C-8.31272 1577.87 -15.6928 1570.75 -22.3378 1562.95C-27.6178 1556.67 -32.3877 1550 -36.5277 1542.88C-40.2777 1520.7 -43.1427 1498.4 -45.1677 1475.98C-47.3277 1451.17 -48.4527 1426.31 -48.6627 1401.42M13.4972 883.084C10.6622 906.775 8.96718 930.572 8.24719 954.448C7.54219 981.489 8.1123 1008.53 9.6723 1035.52C-0.842696 1039.98 -11.1477 1044.93 -21.0627 1050.67C-28.2777 1054.93 -35.2528 1059.61 -41.6578 1065.03M13.4972 883.084C1.99218 913.316 -8.52273 943.946 -17.9127 974.922C-26.8527 1004.67 -34.8178 1034.72 -41.6578 1065.03M13.4972 883.084C5.38218 890.795 -2.25278 899.065 -9.15278 907.945C-14.7478 915.31 -19.8477 923.047 -24.3027 931.183C-28.8027 952.029 -32.4178 973.034 -35.2828 994.172C-38.3878 1017.7 -40.4578 1041.34 -41.6578 1065.03M89.7423 829.861C90.5223 857.035 92.6222 884.155 95.6672 911.17C99.2822 942.279 104.232 973.202 110.142 1003.91C90.8523 1008.64 71.6973 1013.84 52.7673 1019.84C38.2173 1024.49 23.7873 1029.58 9.6723 1035.52M89.7423 829.861C73.8423 863.741 59.0823 898.151 45.4623 933.062C32.3973 966.785 20.4273 1000.96 9.6723 1035.52M89.7423 829.861C74.6223 838.073 59.8772 847 45.7922 856.903C34.4972 864.931 23.6522 873.566 13.4972 883.072C10.6472 906.76 8.96718 930.58 8.24719 954.426C7.55719 981.494 8.0973 1008.54 9.6723 1035.52M219.447 775.538C225.837 806.576 233.352 837.35 241.647 867.916C251.322 903.253 262.062 938.3 273.597 973.086C243.447 977.569 213.372 982.523 183.417 988.185C158.892 992.877 134.427 998.015 110.157 1003.91M219.447 775.538C198.732 812.815 179.127 850.747 160.647 889.255M219.447 775.538C195.057 783.665 170.877 792.526 147.147 802.513C127.647 810.77 108.432 819.788 89.7573 829.853C90.5523 857.038 92.6222 884.143 95.6822 911.143C99.3272 942.258 104.232 973.191 110.157 1003.91M110.157 1003.91C125.832 965.169 142.692 926.95 160.647 889.255M110.157 1003.91C125.832 965.169 142.692 926.923 160.647 889.255M411.507 725.984C424.827 760.805 438.807 795.365 453.267 829.691C469.857 869.015 487.092 908.053 504.777 946.855C463.437 950.421 422.157 954.454 380.922 959.113C345.087 963.225 309.282 967.805 273.567 973.088M411.507 725.984C386.412 765.958 362.322 806.582 339.252 847.805C316.317 889.003 294.417 930.746 273.567 973.088M411.507 725.984C376.647 733.01 341.952 740.843 307.512 749.744C277.917 757.447 248.532 765.958 219.447 775.535C225.837 806.582 233.352 837.343 241.647 867.896C251.337 903.263 262.062 938.293 273.567 973.088M663.5 688.264C683.78 726.386 704.198 764.458 724.71 802.453C747.656 844.895 770.739 887.285 793.916 929.625C743.712 931.487 693.54 933.893 643.377 936.867C597.147 939.686 550.932 942.971 504.777 946.876M663.5 688.264C635.667 729.722 608.682 771.778 582.492 814.349C555.732 858.008 529.842 902.183 504.777 946.876M663.5 688.264C619.122 692.996 574.857 698.609 530.727 705.203C490.827 711.23 451.062 718.084 411.492 725.999C424.812 760.811 438.792 795.365 453.267 829.712C469.857 869.026 487.077 908.054 504.777 946.876M958.256 669.043C983.88 709.561 1009.2 750.31 1034.25 791.215C1061.37 835.544 1088.17 880.054 1114.69 924.719C1060.64 924.436 1006.58 924.693 952.542 925.492C899.648 926.342 846.779 927.707 793.911 929.639M958.256 669.043C930.495 710.515 903.332 752.371 876.654 794.588M958.256 669.043C907.854 670.46 857.498 672.752 807.173 676.024C759.21 679.192 711.305 683.237 663.494 688.259C683.775 726.407 704.193 764.452 724.719 802.445C747.651 844.921 770.735 887.318 793.911 929.639M958.256 669.043C930.495 710.515 903.317 752.371 876.654 794.588M793.911 929.639C820.955 884.278 848.514 839.254 876.654 794.588M1265.61 672.164C1293.71 713.773 1321.14 755.846 1347.98 798.358C1376.05 842.879 1403.45 887.866 1430.24 933.213M1265.61 672.164C1241.19 712.148 1216.98 752.263 1192.94 792.479C1166.67 836.434 1140.6 880.519 1114.7 924.705C1168.31 925.04 1221.92 925.891 1275.52 927.335C1327.11 928.753 1378.69 930.686 1430.24 933.213M1265.61 672.164C1293.71 713.773 1321.14 755.846 1347.99 798.332C1376.05 842.879 1403.45 887.866 1430.24 933.213M1265.61 672.164C1314.83 674.561 1364.01 677.836 1413.12 682.09C1459.25 686.162 1505.29 691.061 1551.22 696.991C1532.76 734.294 1514.01 771.443 1495.06 808.463C1473.7 850.201 1452.07 891.758 1430.24 933.213M1551.22 696.973C1578.55 738.185 1604.96 779.995 1630.52 822.373C1656.42 865.475 1681.41 909.149 1705.49 953.34M1551.22 696.973C1532.76 734.3 1514.01 771.446 1495.06 808.487C1473.7 850.193 1452.08 891.767 1430.24 933.213C1478.41 935.622 1526.56 938.524 1574.67 942.047C1618.32 945.259 1661.93 948.989 1705.49 953.34M1551.22 696.973C1578.55 738.185 1604.97 779.995 1630.52 822.373C1656.42 865.475 1681.41 909.149 1705.49 953.34M1551.22 696.973C1593.23 702.49 1635.12 708.811 1676.85 716.141C1714.03 722.773 1751.07 730.207 1787.88 738.677C1776.52 772.481 1764.36 806.027 1751.64 839.339C1736.94 877.625 1721.5 915.599 1705.49 953.34M1787.88 738.677C1811.89 778.024 1834.85 818.023 1856.76 858.62C1878.38 898.933 1898.95 939.791 1918.41 981.25M1787.88 738.677C1776.52 772.496 1764.36 806.029 1751.64 839.351C1736.94 877.63 1721.49 915.595 1705.48 953.35C1743.86 957.21 1782.19 961.59 1820.45 966.596C1853.18 970.925 1885.85 975.749 1918.41 981.25M1787.88 738.677C1811.89 778.024 1834.85 818.023 1856.76 858.62C1878.39 898.906 1898.96 939.791 1918.41 981.25M1787.88 738.677C1819.87 746.134 1851.67 754.373 1883.18 763.682C1909.91 771.635 1936.42 780.37 1962.55 790.201C1957.86 820.187 1951.98 849.938 1945.24 879.481C1937.34 913.664 1928.31 947.588 1918.41 981.25M1962.55 790.202C1981.94 826.634 2000.22 863.62 2017.34 901.208M1962.55 790.202C1957.86 820.174 1951.98 849.934 1945.24 879.484C1937.34 913.684 1928.31 947.596 1918.41 981.244C1945.46 985.841 1972.42 990.937 1999.25 996.768C2020.85 1001.47 2042.35 1006.67 2063.65 1012.63M1962.55 790.202C1981.94 826.634 2000.22 863.62 2017.34 901.208M1962.55 790.202C1984.23 798.424 2005.63 807.407 2026.56 817.468C2043.59 825.742 2060.28 834.698 2076.4 844.706M2017.34 901.208C2033.92 937.85 2049.39 974.992 2063.65 1012.63M2063.65 1012.63C2068.24 982.951 2071.8 953.138 2074.05 923.167C2075.93 897.058 2076.81 870.895 2076.4 844.706M2076.4 844.706C2091.01 877.621 2104.54 910.985 2116.92 944.827C2128.74 977.477 2139.49 1010.5 2149.06 1043.89M2076.4 844.706C2076.81 870.901 2075.93 897.068 2074.06 923.183C2071.8 953.135 2068.24 982.955 2063.65 1012.64C2080.27 1017.32 2096.76 1022.48 2112.99 1028.46C2125.24 1033.01 2137.34 1038.04 2149.06 1043.89M2076.4 844.706C2089.34 852.856 2101.87 861.64 2113.71 871.351C2123.2 879.235 2132.19 887.675 2140.46 896.884M2149.06 1043.89C2149.72 1017.83 2149.37 991.792 2147.81 965.783C2146.35 942.71 2143.95 919.717 2140.46 896.884M2140.46 896.884C2150.94 926.101 2160.44 955.692 2168.89 985.602C2176.91 1014.31 2183.96 1043.27 2189.98 1072.48M2140.46 896.884C2143.95 919.709 2146.35 942.694 2147.81 965.787C2149.37 991.782 2149.72 1017.83 2149.06 1043.88C2157.67 1048.25 2166.07 1053.04 2173.97 1058.63C2179.7 1062.74 2185.14 1067.29 2189.98 1072.48M2140.46 896.884C2147.14 904.394 2153.29 912.385 2158.75 920.881C2163.26 927.966 2167.26 935.396 2170.68 943.094C2175.34 963.283 2179.23 983.632 2182.38 1004.11C2185.8 1026.78 2188.31 1049.58 2189.98 1072.48M208.302 532.591C205.197 546.887 203.202 561.379 201.957 575.944C200.532 593.966 200.262 612.038 200.817 630.11C181.167 641.045 162.012 652.808 143.532 665.668C127.917 676.628 112.842 688.343 98.5172 700.984M208.302 532.591C188.217 559.138 169.047 586.367 150.807 614.254C132.402 642.53 114.972 671.465 98.5172 700.984M208.302 532.591C192.342 545.182 176.922 558.481 162.207 572.582C149.382 585.004 137.097 597.985 125.502 611.575C119.712 624.727 114.732 638.195 110.442 651.932C105.522 668.03 101.592 684.398 98.5172 700.984M333.597 453.286C335.442 469.384 338.187 485.339 341.442 501.175C345.687 521.627 350.757 541.84 356.322 561.932C327.672 571.979 299.337 582.959 271.512 595.183C247.482 605.851 223.842 617.38 200.802 630.106M333.597 453.286C309.867 480.674 287.082 508.901 265.212 537.892C242.742 567.889 221.277 598.651 200.802 630.106M333.597 453.286C310.242 465.365 287.367 478.354 265.107 492.491C245.577 504.977 226.617 518.302 208.317 532.606C205.212 546.863 203.187 561.359 201.972 575.95C200.517 593.962 200.262 612.046 200.802 630.106M507.132 382.219C515.712 400.315 524.472 418.342 533.337 436.297C544.677 459.212 556.182 482.08 567.792 504.877C530.052 512.633 492.552 521.423 455.337 531.434C422.022 540.53 388.992 550.612 356.307 561.94M507.132 382.219C480.792 409.552 455.427 437.825 430.932 466.921C405.072 497.779 380.217 529.484 356.307 561.94M507.132 382.219C475.797 392.371 444.822 403.606 414.282 416.108C386.922 427.436 359.997 439.753 333.597 453.289C335.442 469.366 338.202 485.323 341.442 501.187C345.687 521.611 350.772 541.846 356.307 561.94M725.768 329.015C741.437 349.297 756.708 369.88 771.753 390.647C790.178 416.114 808.235 441.86 826.037 467.767M725.768 329.015C698.831 355.316 672.807 382.543 647.562 410.512C620.052 441.166 593.487 472.676 567.777 504.904M725.768 329.015C687.411 335.729 649.272 343.624 611.412 352.816C576.327 361.429 541.542 371.176 507.132 382.219C515.697 400.324 524.472 418.337 533.337 436.303C544.662 459.247 556.167 482.099 567.777 504.904M826.037 467.767C781.284 471.82 736.64 476.959 692.147 483.326C650.502 489.392 609.042 496.523 567.777 504.904M826.037 467.767C872.738 463.64 919.512 460.706 966.351 458.941C1014.04 457.198 1061.75 456.671 1109.47 457.267C1086.63 428.359 1063.29 399.887 1039.24 371.989C1018.67 348.215 997.598 324.901 975.839 302.206M826.037 467.767C851.085 437.071 876.818 406.948 903.372 377.605M826.037 467.767C808.238 441.863 790.176 416.117 771.767 390.649C756.722 369.878 741.435 349.316 725.768 329.027C766.362 322.036 807.17 316.373 848.115 311.926C890.583 307.387 933.173 304.201 975.839 302.206M975.839 302.206C950.927 326.575 926.84 351.791 903.372 377.605M975.839 302.206C950.927 326.575 926.823 351.769 903.372 377.605M1478.45 341.263C1505.47 367.94 1531.56 395.57 1556.83 423.944C1584.12 454.757 1610.43 486.454 1635.87 518.872M1478.45 341.263C1464.69 360.922 1451.17 380.744 1437.81 400.706C1421.25 425.477 1404.92 450.436 1388.75 475.463C1431.91 480.668 1474.93 486.919 1517.77 494.425C1557.35 501.466 1596.74 509.53 1635.87 518.872M1478.45 341.263C1505.47 367.94 1531.56 395.57 1556.84 423.944C1584.12 454.757 1610.43 486.454 1635.87 518.872M1478.45 341.263C1515.09 349.07 1551.47 357.994 1587.52 368.266C1620.59 377.794 1653.35 388.39 1685.67 400.288C1679.04 417.856 1672.01 435.238 1664.78 452.527C1655.44 474.788 1645.76 496.888 1635.87 518.872M1685.67 400.292C1711.46 427.754 1736.28 456.136 1760.2 485.297C1785.27 516.04 1809.31 547.586 1832.39 579.889M1685.67 400.292C1679.04 417.86 1672.01 435.239 1664.78 452.522C1655.44 474.79 1645.76 496.891 1635.86 518.873C1671.22 527.398 1706.34 536.938 1741.1 547.753C1771.88 557.386 1802.36 568.012 1832.39 579.889M1685.67 400.292C1711.46 427.754 1736.28 456.136 1760.21 485.297C1785.27 516.04 1809.31 547.586 1832.39 579.889M1685.67 400.292C1714.85 411.154 1743.64 423.007 1771.92 436.136C1797.08 447.919 1821.79 460.669 1845.9 474.577C1845.62 490.114 1844.33 505.627 1842.43 521.047C1839.93 540.809 1836.45 560.408 1832.39 579.889M1845.9 474.563C1868.71 501.8 1890.56 529.855 1911.48 558.607M1845.9 474.563C1845.63 490.118 1844.33 505.624 1842.44 521.033C1839.93 540.818 1836.45 560.41 1832.39 579.883C1858.5 590.291 1884.24 601.613 1909.44 614.162C1931.01 625.004 1952.15 636.712 1972.66 649.549M1845.9 474.563C1868.71 501.8 1890.56 529.855 1911.48 558.607M1845.9 474.563C1867.13 486.896 1887.85 500.119 1907.89 514.397C1925.43 526.97 1942.41 540.313 1958.69 554.569C1962.74 568.439 1965.76 582.622 1967.98 596.926C1970.6 614.354 1972.05 631.928 1972.66 649.549M1911.48 558.607C1932.88 588.224 1953.27 618.538 1972.66 649.549M1911.48 558.607C1932.88 588.224 1953.27 618.538 1972.66 649.549M2013.04 635.003C1995.83 607.547 1977.71 580.726 1958.68 554.566C1962.74 568.466 1965.76 582.635 1967.98 596.927C1970.6 614.375 1972.04 631.945 1972.65 649.565C1990.02 660.553 2006.89 672.299 2023.04 685.073C2036.66 695.962 2049.72 707.537 2062.03 719.92M2013.04 635.003C2030.32 662.731 2046.66 691.043 2062.03 719.92M2013.04 635.003C2030.32 662.731 2046.66 691.043 2062.03 719.92M2013.04 635.003C1995.83 607.547 1977.71 580.726 1958.68 554.566C1972.88 567.071 1986.51 580.237 1999.47 594.112C2010.78 606.299 2021.54 619 2031.69 632.215C2037.86 645.184 2043.33 658.472 2048.15 672.029C2053.65 687.715 2058.23 703.72 2062.03 719.92M2140.45 896.861C2129.56 866.755 2117.63 837.032 2104.71 807.743C2091.48 777.97 2077.23 748.708 2062.02 719.93M2140.45 896.861C2137.29 876.671 2133.28 856.634 2128.34 836.828C2123.91 819.322 2118.76 802.019 2112.85 784.972C2106.27 774.034 2099.08 763.505 2091.33 753.383C2082.23 741.628 2072.42 730.511 2062.02 719.93M2140.45 896.861C2129.56 866.755 2117.63 837.032 2104.71 807.769C2091.48 777.97 2077.23 748.708 2062.02 719.93M2140.45 896.861C2132.19 887.66 2123.19 879.227 2113.71 871.355C2101.86 861.644 2089.33 852.851 2076.39 844.724C2075.95 822.133 2074.54 799.591 2071.92 777.152C2069.58 757.907 2066.35 738.817 2062.02 719.93M2076.39 844.691C2061.36 811.102 2045.22 778.04 2028.02 745.561C2010.62 712.93 1992.16 680.903 1972.65 649.534M2076.39 844.691C2075.95 822.104 2074.55 799.568 2071.92 777.133C2069.59 757.901 2066.35 738.772 2062.03 719.894C2049.72 707.503 2036.66 695.945 2023.05 685.043C2006.89 672.272 1990.03 660.512 1972.65 649.534M2076.39 844.691C2061.36 811.102 2045.22 778.04 2028.02 745.561C2010.62 712.93 1992.16 680.903 1972.65 649.534M2076.39 844.691C2060.28 834.673 2043.59 825.713 2026.55 817.436C2005.62 807.391 1984.22 798.407 1962.55 790.18C1966.44 764.791 1969.48 739.301 1971.29 713.662C1972.73 692.311 1973.3 670.936 1972.65 649.534M1962.55 790.19C1942.93 753.557 1922.21 717.574 1900.41 682.237C1878.78 647.398 1856.11 613.256 1832.39 579.863M1962.55 790.19C1966.44 764.789 1969.47 739.313 1971.29 713.665C1972.72 692.323 1973.3 670.931 1972.65 649.54C1952.15 636.715 1931.01 624.986 1909.43 614.153C1884.23 601.627 1858.5 590.297 1832.39 579.863M1962.55 790.19C1942.92 753.557 1922.21 717.574 1900.4 682.237C1878.77 647.398 1856.11 613.256 1832.39 579.863M1962.55 790.19C1936.41 780.353 1909.91 771.613 1883.18 763.643C1851.66 754.33 1819.86 746.087 1787.88 738.641C1797.43 710.053 1806.41 681.241 1814.54 652.18C1821.18 628.273 1827.24 604.168 1832.39 579.863M1787.88 738.653C1764.12 699.929 1739.36 661.87 1713.57 624.499C1688.63 588.553 1662.75 553.297 1635.86 518.851M1787.88 738.653C1797.43 710.059 1806.41 681.244 1814.54 652.183C1821.18 628.261 1827.24 604.166 1832.39 579.874C1802.36 568 1771.88 557.378 1741.1 547.715C1706.34 536.921 1671.22 527.407 1635.86 518.851M1787.88 738.653C1764.12 699.929 1739.36 661.87 1713.57 624.499C1688.63 588.553 1662.75 553.321 1635.86 518.851M1787.88 738.653C1751.06 730.171 1714.02 722.746 1676.84 716.108C1635.11 708.781 1593.22 702.461 1551.22 696.979M1635.86 518.851C1623.57 546.142 1610.97 573.236 1598.16 600.256C1582.77 632.636 1567.1 664.868 1551.22 696.979M1551.22 696.979C1524.95 657.514 1497.86 618.658 1469.87 580.459C1443.64 544.814 1416.64 509.777 1388.74 475.471M1551.22 696.979C1567.1 664.838 1582.77 632.624 1598.15 600.263C1610.96 573.257 1623.57 546.152 1635.86 518.854C1596.74 509.534 1557.35 501.457 1517.76 494.425C1474.93 486.931 1431.91 480.653 1388.74 475.471M1551.22 696.979C1524.95 657.514 1497.86 618.658 1469.87 580.459C1443.64 544.814 1416.64 509.777 1388.74 475.471M1551.22 696.979C1505.28 691.042 1459.24 686.128 1413.11 682.064C1364 677.83 1314.83 674.546 1265.6 672.137C1287.29 636.662 1309.14 601.286 1331.2 566.054C1350.2 535.739 1369.36 505.544 1388.74 475.471M1265.61 672.136C1239.49 633.547 1212.8 595.394 1185.44 557.723C1160.71 523.777 1135.44 490.241 1109.47 457.262M1265.61 672.136C1287.29 636.667 1309.14 601.27 1331.2 566.041C1350.2 535.721 1369.36 505.523 1388.75 475.469C1343.11 470.077 1297.36 465.919 1251.52 462.872C1204.22 459.826 1156.86 457.964 1109.47 457.262M1265.61 672.136C1239.48 633.547 1212.8 595.394 1185.44 557.723C1160.7 523.777 1135.42 490.241 1109.47 457.262M1265.61 672.136C1214.61 669.718 1163.59 668.267 1112.54 667.711C1061.1 667.204 1009.68 667.639 958.257 669.017C983.807 630.911 1009.83 593.194 1036.46 555.91C1060.29 522.617 1084.58 489.686 1109.47 457.262M663.497 688.234C645.927 655.144 628.437 622.03 611.097 588.818C596.547 560.9 582.087 532.933 567.792 504.868C609.042 496.517 650.517 489.38 692.154 483.31C736.646 476.926 781.292 471.778 826.043 467.749M663.497 688.234C690.021 648.88 717.309 610.037 745.433 571.849C771.546 536.549 798.375 501.785 826.043 467.749M663.497 688.234C711.309 683.207 759.212 679.153 807.194 675.973C857.501 672.719 907.857 670.414 958.259 669.005C935.265 632.711 912.015 596.612 888.428 560.705C867.917 529.51 847.161 498.508 826.043 467.749M411.492 725.953C400.242 696.397 389.472 666.643 379.392 636.668C371.127 611.939 363.357 587.063 356.337 561.917C388.977 550.595 422.022 540.521 455.337 531.454C492.552 521.405 530.052 512.606 567.807 504.862M411.492 725.953C436.167 686.863 461.772 648.433 488.397 610.739C513.927 574.736 540.372 539.395 567.807 504.862M411.492 725.953C451.092 718.061 490.842 711.199 530.727 705.17C574.872 698.578 619.137 692.965 663.503 688.235C645.927 655.148 628.452 622.013 611.112 588.803C596.547 560.888 582.102 532.924 567.807 504.862M219.447 775.537C214.122 749.311 209.577 722.935 206.202 696.385C203.472 674.375 201.537 652.292 200.787 630.134C223.842 617.405 247.482 605.843 271.497 595.223C299.322 582.991 327.642 571.999 356.322 561.949M219.447 775.537C240.282 738.218 262.197 701.546 285.207 665.567C307.887 630.308 331.572 595.744 356.322 561.949M219.447 775.537C248.517 765.959 277.902 757.448 307.497 749.732C341.952 740.849 376.647 733.009 411.492 725.962C400.242 696.434 389.457 666.683 379.377 636.685C371.097 611.972 363.342 587.084 356.322 561.949M89.7273 829.837C89.1423 806.527 89.5172 783.217 91.1372 759.956C92.5922 740.191 94.9772 720.502 98.5172 700.964C112.857 688.34 127.917 676.622 143.547 665.659C162.012 652.835 181.167 641.041 200.787 630.128M89.7273 829.837C106.002 795.337 123.387 761.414 141.852 728.122C160.437 694.778 180.117 662.114 200.787 630.128M89.7273 829.837C108.447 819.752 127.617 810.751 147.147 802.502C170.907 792.52 195.027 783.644 219.462 775.522C214.107 749.32 209.577 722.917 206.217 696.362C203.472 674.36 201.552 652.282 200.787 630.128M13.5272 883.046C16.1222 862.261 19.5873 841.577 24.1023 821.123C28.1373 803.165 32.9521 785.41 38.5921 767.936C46.4671 756.524 55.0322 745.648 64.1522 735.281C74.9072 723.131 86.4272 711.719 98.5172 700.97M13.5272 883.046C25.4672 851.969 38.4722 821.326 52.4822 791.141C66.8222 760.55 82.1672 730.492 98.5172 700.97M13.5272 883.046C23.6522 873.545 34.4972 864.91 45.8072 856.861C59.9222 846.952 74.6373 838.036 89.7423 829.834C89.1423 806.527 89.5172 783.194 91.1372 759.964C92.6072 740.171 94.9772 720.482 98.5172 700.97M1958.68 554.539C1939.98 528.97 1920.44 504.083 1900.05 479.899C1880.27 456.583 1859.72 433.994 1838.39 412.156M1958.68 554.539C1955.25 543.044 1951.13 531.785 1946.18 520.879C1941.95 511.73 1937.17 502.864 1931.8 494.348C1918.19 480.157 1904.02 466.528 1889.34 453.487C1872.93 438.991 1855.92 425.221 1838.39 412.156M1958.68 554.539C1939.98 528.97 1920.44 504.083 1900.05 479.899C1880.27 456.583 1859.72 433.994 1838.39 412.156M1958.68 554.539C1942.4 540.301 1925.42 526.954 1907.89 514.357C1887.84 500.095 1867.12 486.889 1845.89 474.551C1846.04 462.611 1845.58 450.671 1844.09 438.826C1842.9 429.794 1841.1 420.857 1838.39 412.156M1845.89 474.56C1823.93 448.471 1801.12 423.184 1777.41 398.725C1754.92 375.691 1731.66 353.437 1707.58 332.101M1845.89 474.56C1846.04 462.641 1845.58 450.698 1844.09 438.848C1842.89 429.821 1841.1 420.865 1838.38 412.16C1818.82 397.693 1798.66 384.119 1778 371.35C1755.06 357.271 1731.56 344.227 1707.58 332.101M1845.89 474.56C1823.93 448.471 1801.11 423.184 1777.41 398.725C1754.92 375.691 1731.65 353.437 1707.58 332.101M1845.89 474.56C1821.78 460.666 1797.07 447.896 1771.91 436.138C1743.63 423.001 1714.84 411.151 1685.66 400.288C1690.58 387.196 1695.29 374.036 1699.55 360.74C1702.55 351.301 1705.32 341.77 1707.58 332.101M1707.58 332.101C1681.2 318.865 1654.3 306.776 1626.99 295.679C1597.25 283.703 1567.07 272.944 1536.55 263.264C1562.01 283.231 1586.65 304.21 1610.57 326.068C1636.47 349.885 1661.48 374.668 1685.67 400.285M1707.58 332.101C1705.32 341.758 1702.54 351.302 1699.55 360.734C1695.29 374.038 1690.58 387.206 1685.67 400.285M1478.45 341.246C1453.91 317.149 1428.63 293.849 1402.47 271.589C1379.12 251.833 1355.1 232.918 1330.3 215.066M1478.45 341.246C1489.15 326.008 1500 310.88 1511.12 295.952C1519.4 284.9 1527.82 273.959 1536.56 263.261C1503.76 252.962 1470.61 243.949 1437.18 236.041C1401.8 227.803 1366.15 220.825 1330.3 215.066M1478.45 341.246C1453.91 317.149 1428.62 293.849 1402.47 271.589C1379.12 251.833 1355.1 232.918 1330.3 215.066M1478.45 341.246C1439.25 333.007 1399.81 326.074 1360.19 320.36C1318.62 314.468 1276.89 309.884 1235.06 306.539C1251.72 288.533 1268.79 270.902 1286.48 253.937C1300.64 240.449 1315.17 227.381 1330.3 215.066M1235.05 306.542C1212.56 284.848 1189.44 263.834 1165.52 243.785C1145.01 226.718 1123.95 210.377 1102.15 195.065M1235.05 306.542C1251.72 288.533 1268.79 270.919 1286.48 253.94C1300.63 240.472 1315.16 227.399 1330.3 215.071C1292.98 209.192 1255.48 204.586 1217.86 201.23M1235.05 306.542C1212.56 284.848 1189.44 263.855 1165.52 243.806C1145.01 226.718 1123.95 210.377 1102.15 195.065M1235.05 306.542C1192.06 303.208 1149 301.168 1105.88 300.379C1062.53 299.72 1019.16 300.313 975.845 302.177C997.359 281.251 1019.45 260.96 1042.32 241.591C1061.68 225.293 1081.55 209.675 1102.15 195.065M1102.15 195.065C1140.78 195.833 1179.36 197.873 1217.86 201.23M1217.86 201.23C1255.48 204.586 1292.98 209.18 1330.31 215.08C1308.47 199.477 1286.07 184.771 1263 171.178C1242.9 159.443 1222.33 148.564 1201.22 138.838M1217.86 201.23C1179.36 197.875 1140.78 195.844 1102.15 195.074C1119.28 182.998 1136.87 171.647 1155.08 161.366C1170.05 152.987 1185.4 145.379 1201.22 138.838M725.774 329.002C713.409 313.043 700.815 297.283 687.812 281.854C677.945 270.176 667.835 258.721 657.312 247.64C691.587 238.436 726.183 230.512 761.007 223.757C797.537 216.737 834.294 211.064 871.19 206.561M725.774 329.002C750.012 305.494 774.954 282.758 800.748 261.061M725.774 329.002C766.382 322.027 807.176 316.333 848.12 311.873C890.588 307.37 933.176 304.169 975.842 302.183C957.693 283.376 939.071 265.034 919.778 247.441C904.079 233.204 887.969 219.475 871.19 206.561M871.19 206.561C846.978 223.735 823.544 241.99 800.748 261.061M871.19 206.561C846.993 223.735 823.544 241.99 800.748 261.061M507.132 382.211C500.727 368.636 494.382 355.018 488.307 341.287C483.972 331.498 479.757 321.688 475.767 311.741C504.027 299.153 532.737 287.752 561.837 277.381C593.292 266.27 625.152 256.415 657.312 247.657M507.132 382.211C531.627 356.899 556.932 332.44 583.122 308.965C607.107 287.617 631.797 267.1 657.312 247.657M507.132 382.211C541.557 371.168 576.342 361.424 611.427 352.778C649.287 343.594 687.414 335.71 725.769 329.012C713.406 313.042 700.814 297.272 687.809 281.861C677.942 270.19 667.832 258.722 657.312 247.657M507.132 382.211C531.627 356.899 556.932 332.44 583.137 308.965C607.122 287.617 631.797 267.1 657.312 247.657M333.597 453.266C332.262 441.118 331.422 428.924 331.557 416.684C331.692 407.641 332.367 398.597 333.957 389.669C355.347 375.374 377.337 362.038 399.777 349.592C424.617 335.914 449.997 323.354 475.782 311.731M333.597 453.266C356.307 427.211 379.872 401.954 404.322 377.59C427.362 354.754 451.152 332.762 475.782 311.731M333.597 453.266C359.982 439.724 386.937 427.417 414.312 416.09C444.807 403.598 475.797 392.363 507.132 382.202C500.727 368.615 494.412 355.004 488.307 341.258C483.972 331.484 479.757 321.665 475.782 311.731M208.317 532.585C210.897 520.994 214.227 509.614 218.427 498.535C221.982 489.439 226.137 480.577 230.967 472.111C246.072 457.697 261.762 443.962 277.932 430.877C296.037 416.348 314.742 402.634 333.972 389.69M208.317 532.585C227.967 506.791 248.457 481.72 269.802 457.394C290.397 434.048 311.802 411.473 333.972 389.69M208.317 532.585C226.602 518.288 245.592 504.971 265.122 492.472C287.337 478.361 310.242 465.347 333.597 453.266C332.262 441.116 331.437 428.918 331.542 416.698C331.692 407.648 332.367 398.599 333.972 389.69M464.937 279.032C465.792 283.319 467.067 287.539 468.417 291.692C470.637 298.471 473.157 305.114 475.797 311.735C449.967 323.339 424.617 335.932 399.777 349.579C377.322 362.059 355.362 375.391 333.957 389.689M464.937 279.032C442.497 295.238 420.672 312.319 399.432 330.14M464.937 279.032C443.517 290.996 422.532 303.722 402.027 317.257C383.232 329.759 364.887 342.89 347.037 356.716C344.022 360.959 341.562 365.515 339.537 370.319C336.972 376.558 335.217 383.068 333.957 389.689M464.937 279.032C442.497 295.238 420.657 312.319 399.432 330.14M333.957 389.689C355.107 369.061 376.917 349.175 399.432 330.14M615.267 210.538C621.657 214.733 627.657 219.545 633.447 224.575C641.757 231.868 649.647 239.666 657.312 247.685C625.152 256.406 593.292 266.27 561.837 277.385C532.737 287.753 504.027 299.177 475.767 311.764M615.267 210.538C591.762 224.773 568.857 240.019 546.522 256.099M615.267 210.538C588.477 220.402 562.062 231.232 536.067 243.094C511.947 254.188 488.202 266.159 464.922 279.055C465.807 283.36 467.052 287.555 468.387 291.707C470.607 298.474 473.142 305.131 475.767 311.764M475.767 311.764C498.672 292.301 522.237 273.716 546.522 256.099M475.767 311.764C498.672 292.301 522.222 273.716 546.522 256.099M795.18 159.977C807.149 165.133 818.661 171.304 829.838 178.034C844.136 186.751 857.855 196.394 871.194 206.555C834.284 211.043 797.543 216.739 761.012 223.729C726.188 230.503 691.593 238.442 657.312 247.655M795.18 159.977C772.358 171.692 750.081 184.507 728.337 198.206C703.988 213.653 680.34 230.222 657.312 247.655M795.18 159.977C763.859 166.363 732.783 173.849 701.979 182.501C672.758 190.786 643.827 200.105 615.282 210.526C621.687 214.711 627.672 219.521 633.462 224.57C641.772 231.862 649.662 239.651 657.312 247.655M995.294 134.75C1012.46 141.893 1029.13 150.166 1045.39 159.227C1064.9 170.165 1083.78 182.234 1102.16 195.049C1063.34 194.366 1024.52 194.984 985.731 196.861C947.466 198.844 909.263 202.042 871.196 206.563M995.294 134.75C975.102 143.747 955.446 153.875 936.23 164.857C913.923 177.736 892.284 191.722 871.196 206.563M995.294 134.75C961.277 136.604 927.353 139.633 893.534 143.854C860.582 148.076 827.783 153.428 795.183 159.974C807.152 165.134 818.664 171.296 829.856 178.034C844.152 186.754 857.873 196.37 871.196 206.563M995.294 134.75C975.102 143.747 955.431 153.875 936.215 164.857C913.923 177.736 892.284 191.722 871.196 206.563M1569.56 227.866C1592.93 242.713 1615.69 258.508 1637.87 275.144C1661.81 293.215 1685.04 312.259 1707.59 332.12C1709.07 325.625 1710.34 319.085 1710.99 312.458C1711.39 308.239 1711.54 303.997 1711.03 299.755M1569.56 227.866C1594.91 238.448 1619.87 249.937 1644.39 262.418C1667.04 274.039 1689.28 286.456 1711.03 299.755M1711.03 299.755C1688.7 285.098 1618.37 239.552 1585.99 218.611M1569.55 227.857C1548.09 214.319 1526.16 201.599 1503.74 189.778M1569.55 227.857C1572.61 225.283 1575.8 222.859 1579.3 220.97C1581.4 219.856 1583.62 218.932 1585.99 218.611M1569.55 227.857C1548.09 214.319 1526.16 201.599 1503.74 189.778M1569.55 227.857C1542.36 216.593 1514.78 206.404 1486.86 197.201C1457.24 187.547 1427.29 179.03 1397.07 171.565C1404.98 168.004 1413.12 164.978 1421.53 162.898C1428.01 161.332 1434.6 160.366 1441.26 160.174M1503.74 189.778C1483.28 179.116 1462.46 169.205 1441.26 160.174M1441.26 160.174C1466.7 168.433 1491.86 177.571 1516.68 187.589C1540.12 197.137 1563.24 207.476 1585.99 218.611M1145.3 116.714C1164.32 123.07 1182.94 130.513 1201.22 138.854C1214.18 133.606 1227.41 129.091 1240.95 125.641C1252.12 122.881 1263.44 120.853 1274.88 119.725C1245.4 114.832 1215.78 110.986 1186.04 108.163C1155.84 105.403 1125.55 103.688 1095.23 103.04M1145.3 116.714C1128.84 111.278 1112.15 106.679 1095.23 103.04M1145.3 116.714C1164.32 123.07 1182.94 130.513 1201.22 138.854C1167.06 135.718 1132.81 133.816 1098.54 133.084C1064.11 132.457 1029.68 133 995.283 134.777C1012.6 127.168 1030.24 120.436 1048.26 114.769C1063.7 109.982 1079.37 106.03 1095.23 103.04M795.183 159.97C785.879 156.016 776.333 152.692 766.512 150.335C758.745 148.526 750.86 147.349 742.911 147.011C770.516 139.334 798.381 132.665 826.443 126.943C855.435 121.138 884.61 116.362 913.92 112.618M795.183 159.97C815.435 149.683 836.097 140.26 857.171 131.908M795.183 159.97C827.784 153.428 860.582 148.064 893.532 143.836C927.351 139.628 961.275 136.621 995.292 134.768C981.041 128.921 966.5 123.851 951.639 119.875C939.228 116.636 926.651 114.154 913.92 112.618M913.92 112.618C894.72 118.129 875.795 124.609 857.171 131.908M913.92 112.618C894.72 118.129 875.81 124.609 857.171 131.908M615.282 210.518C610.962 207.743 606.492 205.223 601.707 203.431C598.467 202.235 595.122 201.403 591.672 201.232C615.582 190.666 639.837 180.953 664.383 172.051C690.269 162.787 716.459 154.462 742.908 147.013M615.282 210.518C636.717 197.624 658.617 185.564 680.996 174.464C701.277 164.495 721.91 155.315 742.908 147.013M615.282 210.518C643.842 200.08 672.758 190.772 701.978 182.468C732.782 173.845 763.875 166.373 795.195 159.97C785.879 156.02 776.331 152.69 766.494 150.322C758.744 148.528 750.857 147.353 742.908 147.013M1103.44 2297.51C1121.29 2311.99 1139.63 2325.77 1158.65 2338.57C1174.24 2348.99 1190.26 2358.72 1206.85 2367.41C1171.23 2370.6 1135.51 2372.57 1099.76 2373.33C1063.84 2373.99 1027.93 2373.4 992.057 2371.6C1010.03 2362.29 1027.4 2351.9 1044.33 2340.76C1064.67 2327.29 1084.32 2312.75 1103.44 2297.51ZM1103.45 2297.51C1143.63 2296.72 1183.76 2294.68 1223.81 2291.29C1262.89 2287.91 1301.86 2283.27 1340.65 2277.33C1324.82 2262.23 1309.57 2246.49 1294.68 2230.44C1276.25 2210.43 1258.39 2189.87 1240.92 2169C1217.7 2193.56 1193.85 2217.5 1169.18 2240.55C1147.91 2260.29 1126.06 2279.38 1103.45 2297.51ZM1103.45 2297.51C1082.04 2280.06 1061.37 2261.69 1041.24 2242.73C1017.61 2220.33 994.745 2197.07 972.465 2173.24C1017.34 2175.12 1062.26 2175.7 1107.16 2175.01C1151.79 2174.26 1196.39 2172.25 1240.92 2169C1217.69 2193.56 1193.84 2217.5 1169.17 2240.55C1147.91 2260.29 1126.06 2279.38 1103.45 2297.51ZM819.041 1989.56C867.065 1993.44 915.18 1996.19 963.344 1997.87C1012.42 1999.49 1061.53 2000.01 1110.62 1999.42C1085.11 1963.87 1060.14 1927.92 1035.61 1891.69C1008.57 1851.6 982.026 1811.16 955.961 1770.4C932.16 1809.52 908.162 1848.47 883.922 1887.29C862.514 1921.52 840.906 1955.62 819.041 1989.56ZM1992.86 1819.49C1992.74 1795.73 1991.36 1772.04 1989.1 1748.38C1986.32 1720.41 1982.3 1692.56 1977.39 1664.9C1999.05 1657.78 2020.5 1650.04 2041.57 1641.24C2058.46 1634.15 2075.08 1626.38 2091.22 1617.64C2077.22 1652.13 2062.07 1686.1 2045.84 1719.56C2029.27 1753.46 2011.6 1786.77 1992.86 1819.49ZM1834.35 1217.45C1852.28 1259.07 1869.3 1301.06 1885.26 1343.47C1899.83 1382.4 1913.5 1421.72 1926.07 1461.38C1893.27 1465.34 1860.42 1468.78 1827.54 1471.87C1788.97 1475.48 1750.36 1478.63 1711.73 1481.4C1734.52 1437.22 1756.45 1392.6 1777.43 1347.52C1797.31 1304.59 1816.33 1261.22 1834.35 1217.45ZM1834.35 1217.45C1795.48 1216.69 1756.61 1216.02 1717.74 1215.44C1673.4 1214.77 1629.06 1214.22 1584.72 1213.72C1607.98 1259.15 1630.6 1304.91 1652.51 1351.04C1672.92 1394.18 1692.71 1437.63 1711.73 1481.4C1734.52 1437.22 1756.45 1392.6 1777.43 1347.52C1797.31 1304.56 1816.32 1261.22 1834.35 1217.45ZM2014.84 1222.04C2027.1 1259.22 2038.29 1296.71 2048.23 1334.58C2057.18 1369.06 2065.08 1403.83 2071.68 1438.88C2050.28 1443.18 2028.77 1446.89 2007.2 1450.26C1980.22 1454.44 1953.16 1458.07 1926.07 1461.37C1943.6 1421.09 1960.1 1380.32 1975.41 1339.11C1989.66 1300.49 2002.86 1261.48 2014.84 1222.04ZM2014.84 1222.04C1987.7 1221.17 1960.56 1220.39 1933.42 1219.69C1900.4 1218.85 1867.38 1218.13 1834.35 1217.46C1852.28 1259.05 1869.3 1301.04 1885.27 1343.47C1899.83 1382.41 1913.51 1421.7 1926.07 1461.37C1943.6 1421.09 1960.09 1380.32 1975.41 1339.11C1989.66 1300.49 2002.86 1261.48 2014.84 1222.04ZM2192.27 1148.32C2191.96 1176.09 2190.53 1203.81 2188.1 1231.45C2193.13 1232 2198.15 1232.66 2203.13 1233.55C2205.93 1234.05 2208.72 1234.6 2211.43 1235.48C2209.87 1208.95 2207.37 1182.48 2203.98 1156.12C2200.29 1128.07 2195.6 1100.18 2189.98 1072.49C2191.74 1097.72 2192.47 1123.04 2192.27 1148.32ZM1705.48 953.344C1729.25 997.134 1752.11 1041.45 1774.01 1086.26C1795.06 1129.52 1815.21 1173.26 1834.35 1217.43C1850.98 1176.84 1866.75 1135.85 1881.48 1094.49C1894.73 1057.05 1907.12 1019.35 1918.41 981.253C1885.84 975.748 1853.18 970.931 1820.44 966.583C1782.19 961.573 1743.86 957.225 1705.48 953.344ZM1705.48 953.344C1729.25 997.134 1752.11 1041.45 1774.01 1086.26C1795.06 1129.52 1815.21 1173.26 1834.35 1217.43C1795.48 1216.66 1756.61 1216 1717.73 1215.42C1673.4 1214.74 1629.06 1214.16 1584.71 1213.69C1606.95 1169.1 1628.6 1124.21 1649.59 1079.02C1668.84 1037.4 1687.51 995.538 1705.48 953.344ZM37.0922 1225.55C29.8922 1192.65 23.7722 1159.51 18.9572 1126.12C14.7272 1096.06 11.5623 1065.84 9.6723 1035.51C23.7873 1029.58 38.2023 1024.48 52.7673 1019.85C71.6973 1013.86 90.8523 1008.65 110.157 1003.94C95.2173 1041.11 81.4022 1078.74 68.8172 1116.85C57.0872 1152.72 46.4522 1188.96 37.0922 1225.55ZM37.0922 1225.55C56.2022 1224.64 75.3123 1223.84 94.4373 1223.12C118.977 1222.21 143.532 1221.44 168.072 1220.72C155.667 1183.33 144.252 1145.64 134.082 1107.56C125.007 1073.29 116.937 1038.74 110.142 1003.94C95.2173 1041.11 81.4022 1078.74 68.8172 1116.85C57.0872 1152.72 46.4522 1188.96 37.0922 1225.55ZM1801.03 1709.65C1788.58 1673.36 1775.29 1637.38 1761.38 1601.65C1745.57 1561.24 1728.96 1521.17 1711.73 1481.37C1750.37 1478.59 1788.97 1475.47 1827.54 1471.87C1860.42 1468.75 1893.27 1465.3 1926.07 1461.36C1907.65 1503.42 1888.11 1544.96 1867.53 1585.95C1846.42 1627.76 1824.24 1669 1801.03 1709.65ZM1801.03 1709.65C1833.33 1703.21 1865.48 1696.03 1897.42 1687.9C1924.29 1681.03 1950.99 1673.46 1977.39 1664.87C1971.58 1632.68 1964.56 1600.7 1956.65 1568.97C1947.53 1532.8 1937.25 1496.95 1926.07 1461.36C1907.65 1503.42 1888.11 1544.96 1867.53 1585.95C1846.42 1627.76 1824.24 1669 1801.03 1709.65ZM1269.59 1767.65C1244.56 1725.13 1219.66 1682.52 1194.86 1639.88C1168.17 1593.97 1141.62 1547.99 1115.17 1501.95C1169.35 1501.7 1223.52 1501.08 1277.69 1500.06C1329.8 1499.04 1381.9 1497.65 1433.99 1495.83C1407.34 1542.61 1380.11 1589.02 1352.29 1635.09C1325.3 1679.65 1297.75 1723.84 1269.59 1767.65ZM1269.59 1767.65C1319.77 1765.55 1369.92 1762.71 1420.01 1758.97C1466.96 1755.44 1513.86 1751.15 1560.67 1745.96C1541.28 1706.07 1521.54 1666.36 1501.53 1626.81C1479.33 1583 1456.79 1539.34 1433.98 1495.83C1407.34 1542.61 1380.12 1589.02 1352.29 1635.09C1325.3 1679.65 1297.75 1723.84 1269.59 1767.65ZM1235.05 306.56C1260.79 331.508 1285.68 357.352 1309.9 383.839C1337 413.632 1363.24 444.254 1388.74 475.472C1343.11 470.098 1297.36 465.94 1251.52 462.884C1204.22 459.829 1156.86 457.969 1109.47 457.256C1131.12 429.139 1153.22 401.366 1175.94 374.098C1195.15 351.149 1214.79 328.568 1235.05 306.56ZM1235.05 306.56C1260.79 331.508 1285.68 357.352 1309.9 383.839C1337 413.632 1363.24 444.254 1388.74 475.472C1404.92 450.433 1421.24 425.486 1437.8 400.723C1451.17 380.759 1464.68 360.935 1478.45 341.272C1439.25 333.025 1399.81 326.134 1360.19 320.39C1318.62 314.486 1276.89 309.914 1235.05 306.56ZM1685.67 400.285C1661.48 374.668 1636.47 349.885 1610.57 326.068C1586.65 304.21 1562.01 283.231 1536.55 263.264C1527.82 273.979 1519.4 284.918 1511.12 295.972C1499.99 310.895 1489.14 326.023 1478.45 341.263C1515.08 349.051 1551.46 358.01 1587.5 368.252C1620.58 377.774 1653.34 388.378 1685.67 400.285ZM1201.22 138.838C1222.33 148.564 1242.9 159.443 1263 171.178C1286.08 184.771 1308.47 199.477 1330.3 215.08C1342.1 205.547 1354.25 196.484 1366.95 188.255C1376.64 182.057 1386.63 176.35 1397.08 171.541C1365.4 163.846 1333.47 157.285 1301.35 151.855C1268.12 146.32 1234.73 142.001 1201.22 138.838ZM1536.55 263.27C1513.37 245.219 1489.54 228.035 1465.01 211.934C1442.91 197.524 1420.28 184.022 1397.07 171.563C1386.63 176.351 1376.64 182.051 1366.95 188.27C1354.24 196.483 1342.1 205.562 1330.3 215.098C1366.15 220.862 1401.79 227.818 1437.18 236.053C1470.6 243.962 1503.76 252.998 1536.55 263.27ZM1536.55 263.27C1513.37 245.219 1489.54 228.035 1465.01 211.934C1442.92 197.524 1420.29 184.022 1397.07 171.563C1427.3 179.039 1457.25 187.555 1486.87 197.221C1514.79 206.408 1542.37 216.593 1569.56 227.861C1564.65 232 1560.1 236.573 1555.68 241.253C1549.03 248.339 1542.72 255.751 1536.55 263.27ZM1569.56 227.866C1592.93 242.713 1615.68 258.508 1637.87 275.144C1661.81 293.215 1685.04 312.259 1707.59 332.12C1681.2 318.887 1654.3 306.781 1626.99 295.69C1597.25 283.715 1567.08 272.957 1536.55 263.281C1542.72 255.769 1549.04 248.345 1555.68 241.255C1560.1 236.57 1564.65 232.019 1569.56 227.866ZM1274.88 119.716C1294.74 126.005 1314.29 133.204 1333.53 141.245C1355.15 150.364 1376.32 160.537 1397.07 171.554C1404.98 167.987 1413.12 164.969 1421.53 162.901C1428.01 161.339 1434.6 160.346 1441.26 160.178C1414.56 151.588 1387.57 143.968 1360.35 137.276C1332.07 130.417 1303.56 124.57 1274.88 119.716ZM1274.88 119.716C1294.74 126.005 1314.29 133.204 1333.53 141.245C1355.15 150.364 1376.32 160.537 1397.07 171.554C1365.39 163.829 1333.47 157.286 1301.34 151.841C1268.12 146.332 1234.73 142.004 1201.22 138.839C1214.18 133.583 1227.42 129.086 1240.95 125.647C1252.12 122.881 1263.44 120.835 1274.88 119.716ZM992.057 2371.59C1010.04 2381.04 1028.43 2389.62 1047.29 2397.04C1063.35 2403.28 1079.69 2408.69 1096.33 2413.04C1064.58 2413.64 1032.83 2413.11 1001.12 2411.48C969.689 2409.77 938.351 2406.94 907.136 2403C920.493 2400.18 933.6 2396.35 946.451 2391.71C962.06 2385.99 977.243 2379.19 992.057 2371.59ZM1605.5 2292.21C1603.13 2290.71 1601.04 2288.83 1599.02 2286.89C1595.49 2283.44 1592.24 2279.72 1589.06 2275.94C1615.09 2265.09 1640.72 2253.32 1665.88 2240.49C1688.99 2228.62 1711.67 2215.89 1733.83 2202.24C1712.81 2219.37 1691.21 2235.71 1669.04 2251.27C1648.34 2265.67 1627.16 2279.35 1605.5 2292.21ZM573.117 2310.34C551.217 2298.08 529.767 2284.97 508.827 2271.11C486.222 2256.05 464.217 2240.17 442.767 2223.47C466.572 2236.71 490.872 2248.97 515.577 2260.33C542.352 2272.51 569.562 2283.61 597.132 2293.7C592.707 2297.78 588.102 2301.68 583.137 2305.03C579.972 2307.15 576.687 2309.07 573.117 2310.34ZM1733.83 2202.25C1734.44 2196.51 1734.3 2190.77 1733.85 2185.03C1733.12 2176.53 1731.69 2168.11 1729.96 2159.75C1754.37 2147.63 1778.3 2134.61 1801.65 2120.48C1822.53 2107.72 1842.89 2094.13 1862.63 2079.63C1842.09 2102.15 1820.82 2123.97 1798.77 2144.98C1777.79 2164.85 1756.15 2183.95 1733.83 2202.25ZM323.442 2143.99C303.012 2125.1 283.257 2105.47 264.132 2085.18C244.332 2064.06 225.267 2042.21 206.952 2019.76C221.922 2034.17 237.507 2047.89 253.647 2060.9C271.812 2075.48 290.622 2089.2 309.957 2102.08C311.127 2110.35 312.867 2118.52 315.507 2126.42C317.592 2132.53 320.187 2138.45 323.442 2143.99ZM972.465 2173.26C994.743 2197.06 1017.61 2220.32 1041.24 2242.73C1061.37 2261.72 1082.04 2280.06 1103.45 2297.51C1063.05 2298.19 1022.67 2297.58 982.316 2295.7C942.513 2293.72 902.802 2290.48 863.213 2285.9C880.722 2270.19 897.596 2253.79 914.039 2236.92C934.092 2216.26 953.508 2194.95 972.465 2173.26ZM1955.46 1997.57C1960.93 1987.49 1965.71 1977.09 1969.86 1966.36C1974.72 1953.63 1978.65 1940.58 1981.82 1927.3C1995.84 1915.21 2009.27 1902.48 2021.98 1888.98C2032.98 1877.22 2043.41 1864.94 2053.19 1852.08C2038.47 1877.61 2022.92 1902.61 2006.54 1927.04C1990.3 1951.14 1973.27 1974.66 1955.46 1997.57ZM206.952 2019.75C188.187 1996.59 170.202 1972.8 153.027 1948.4C135.627 1923.52 119.082 1898.08 103.392 1872.06C114.717 1885.3 126.732 1897.85 139.302 1909.83C153.867 1923.55 169.182 1936.43 185.037 1948.6C187.347 1962.06 190.422 1975.37 194.502 1988.38C197.937 1999.12 202.047 2009.63 206.952 2019.75ZM2053.2 1852.09C2059.2 1837.48 2064.42 1822.53 2068.92 1807.38C2074.04 1789.82 2078.16 1772.04 2081.45 1754.04C2091.53 1744.3 2101.03 1733.96 2109.81 1722.97C2117.17 1713.63 2123.98 1703.86 2130.13 1693.68C2119.18 1720.8 2107.32 1747.56 2094.6 1773.86C2081.67 1800.41 2067.86 1826.52 2053.2 1852.09ZM103.392 1872.07C87.7023 1845.89 72.9124 1819.17 59.0224 1791.98C45.2974 1764.92 32.4873 1737.39 20.6373 1709.45C28.1223 1720.11 36.3274 1730.2 45.1024 1739.79C55.6174 1751.14 66.8824 1761.71 78.7024 1771.64C81.2524 1790.09 84.6724 1808.39 89.1724 1826.46C93.1024 1841.91 97.7973 1857.15 103.392 1872.07ZM1110.62 1999.41C1133.07 2030.65 1155.95 2061.58 1179.38 2092.07C1199.44 2118.09 1219.9 2143.78 1240.92 2168.96C1196.39 2172.24 1151.8 2174.24 1107.16 2175.01C1062.26 2175.68 1017.34 2175.08 972.462 2173.24C994.985 2147.39 1016.85 2120.93 1038.24 2094.11C1062.96 2063.01 1087.03 2031.41 1110.62 1999.41ZM2130.13 1693.68C2135.58 1675.08 2140.21 1656.26 2144.08 1637.26C2148.36 1615.86 2151.65 1594.24 2154.05 1572.54C2160.39 1566.11 2166.25 1559.23 2171.42 1551.8C2175.58 1545.71 2179.25 1539.32 2182.33 1532.59C2175.59 1559.6 2167.94 1586.36 2159.42 1612.82C2150.55 1640.09 2140.78 1667.07 2130.13 1693.68ZM20.6373 1709.45C9.07227 1681.99 -1.57777 1654.16 -11.2678 1625.94C-20.6128 1598.55 -29.0427 1570.88 -36.5127 1542.87C-32.3727 1549.99 -27.5878 1556.68 -22.3228 1562.94C-15.6628 1570.75 -8.29769 1577.84 -0.497692 1584.44C1.28731 1606.89 4.01737 1629.21 7.81237 1651.39C11.2324 1670.93 15.4773 1690.3 20.6373 1709.45ZM950.082 1211.15C977.534 1260.04 1005.08 1308.86 1032.75 1357.62C1060.11 1405.8 1087.58 1453.92 1115.17 1501.96C1060.55 1502.16 1005.92 1501.99 951.287 1501.4C897.855 1500.79 844.439 1499.82 791.007 1498.45C816.695 1451.14 842.567 1403.99 868.617 1356.89C895.599 1308.22 922.751 1259.63 950.082 1211.15ZM2196.7 1396.07C2197.42 1369.74 2197.09 1343.41 2195.81 1317.11C2194.33 1288.46 2191.72 1259.9 2188.1 1231.45C2193.13 1232.03 2198.15 1232.68 2203.13 1233.57C2205.93 1234.06 2208.73 1234.63 2211.43 1235.49C2210.96 1261.48 2209.55 1287.43 2207.25 1313.3C2204.72 1341.01 2201.18 1368.63 2196.7 1396.07ZM-48.6627 1401.4C-53.8827 1372.86 -58.1278 1344.18 -61.3078 1315.33C-64.1728 1288.45 -66.1227 1261.49 -67.0677 1234.44C-63.1977 1233.58 -59.2826 1232.98 -55.3526 1232.43C-48.8126 1231.52 -42.2278 1230.86 -35.6578 1230.26C-40.1428 1259.8 -43.5927 1289.48 -45.8427 1319.31C-47.8227 1346.61 -48.7977 1374.01 -48.6627 1401.4ZM950.076 1211.15C923.171 1163.19 896.37 1115.17 869.694 1067.07C844.313 1021.31 819.048 975.489 793.911 929.617C846.777 927.693 899.645 926.319 952.544 925.494C1006.58 924.67 1060.64 924.422 1114.7 924.697C1087.25 971.559 1060.01 1018.53 1032.96 1065.61C1005.14 1114.01 977.516 1162.53 950.076 1211.15ZM-41.6578 1065.03C-42.9028 1091.27 -43.0228 1117.55 -42.1828 1143.82C-41.1178 1172.69 -38.9278 1201.51 -35.6578 1230.22C-42.2278 1230.85 -48.7977 1231.51 -55.3827 1232.4C-59.2977 1232.98 -63.1977 1233.56 -67.0677 1234.44C-64.9827 1206.84 -61.9227 1179.33 -57.8727 1151.95C-53.5077 1122.77 -48.0778 1093.79 -41.6578 1065.03ZM1115.17 1501.95C1141.62 1547.97 1168.18 1593.96 1194.85 1639.88C1219.66 1682.53 1244.56 1725.11 1269.6 1767.64C1217.56 1769.74 1165.5 1771.01 1113.4 1771.5C1060.92 1771.93 1008.43 1771.56 955.944 1770.39C982.103 1727.37 1008 1684.2 1033.69 1640.9C1061.09 1594.73 1088.23 1548.4 1115.17 1501.95ZM1114.7 924.721C1088.17 880.031 1061.37 835.522 1034.27 791.218C1009.2 750.311 983.883 709.558 958.256 669.037C1009.66 667.673 1061.1 667.235 1112.53 667.75C1163.59 668.29 1214.61 669.757 1265.6 672.175C1241.18 712.157 1216.97 752.266 1192.92 792.479C1166.66 836.449 1140.6 880.546 1114.7 924.721ZM125.502 611.584C119.712 624.734 114.717 638.207 110.457 651.928C105.522 668.026 101.592 684.421 98.5022 700.99C86.4272 711.739 74.9072 723.131 64.1372 735.29C55.0172 745.667 46.4523 756.541 38.5773 767.957C51.2523 740.912 64.8571 714.338 79.2871 688.235C93.8371 662.156 109.257 636.598 125.502 611.584ZM2031.69 632.213C2046.95 656.735 2061.38 681.779 2074.98 707.297C2088.46 732.739 2101.09 758.654 2112.86 784.967C2106.28 774.025 2099.08 763.48 2091.34 753.382C2082.24 741.619 2072.42 730.501 2062.03 719.906C2058.24 703.715 2053.65 687.698 2048.15 672.005C2043.34 658.475 2037.87 645.196 2031.69 632.213ZM1109.48 457.246C1086.64 428.329 1063.29 399.868 1039.27 371.978C1018.68 348.205 997.608 324.865 975.849 302.188C1019.17 300.313 1062.53 299.719 1105.9 300.382C1149.01 301.159 1192.07 303.215 1235.06 306.553C1214.8 328.544 1195.16 351.13 1175.94 374.081C1153.22 401.33 1131.13 429.106 1109.48 457.246ZM958.254 669.017C935.262 632.731 912.009 596.612 888.438 560.687C867.914 529.523 847.16 498.502 826.04 467.747C872.739 463.616 919.518 460.693 966.356 458.905C1014.05 457.19 1061.75 456.634 1109.47 457.262C1084.58 489.707 1060.27 522.637 1036.46 555.904C1009.83 593.206 983.79 630.943 958.254 669.017ZM38.5773 767.948C32.9523 785.444 28.1373 803.173 24.0873 821.132C19.5723 841.592 16.1222 862.258 13.5272 883.051C5.39721 890.782 -2.23777 899.053 -9.13777 907.943C-14.7628 915.287 -19.8327 923.017 -24.2877 931.16C-15.7977 903.563 -6.37781 876.301 3.94219 849.373C14.5772 821.828 26.1423 794.669 38.5773 767.948ZM2112.86 784.955C2124.38 810.925 2135.05 837.283 2144.84 863.975C2154.31 890.05 2162.94 916.406 2170.68 943.074C2167.25 935.373 2163.25 927.957 2158.74 920.851C2153.28 912.35 2147.13 904.39 2140.45 896.845C2137.29 876.664 2133.29 856.612 2128.35 836.818C2123.91 819.298 2118.76 802.01 2112.86 784.955ZM975.848 302.182C957.696 283.363 939.072 265.025 919.782 247.432C904.097 233.191 887.973 219.455 871.193 206.551C909.261 202.037 947.465 198.817 985.728 196.867C1024.51 194.983 1063.34 194.369 1102.15 195.07C1081.55 209.683 1061.68 225.304 1042.33 241.582C1019.46 260.95 997.347 281.26 975.848 302.182ZM230.952 472.115C226.122 480.59 221.967 489.446 218.427 498.565C214.212 509.635 210.882 521.014 208.287 532.609C192.327 545.179 176.937 558.487 162.207 572.579C149.397 585.007 137.112 597.982 125.502 611.575C141.657 586.864 158.622 562.724 176.352 539.203C193.812 516.205 212.022 493.828 230.952 472.115ZM1931.8 494.354C1949.82 515.942 1967.11 538.127 1983.67 560.912C2000.46 584.128 2016.47 607.894 2031.69 632.21C2021.53 619 2010.77 606.29 1999.45 594.085C1986.5 580.226 1972.88 567.064 1958.68 554.57C1955.25 543.058 1951.12 531.809 1946.17 520.897C1941.95 511.754 1937.17 502.874 1931.8 494.354ZM347.052 356.726C344.037 360.949 341.562 365.516 339.537 370.336C336.972 376.556 335.202 383.074 333.972 389.684C314.757 402.628 296.037 416.353 277.947 430.882C261.762 443.963 246.087 457.711 230.967 472.102C249.387 451.124 268.467 430.789 288.222 411.119C307.227 392.323 326.847 374.168 347.052 356.726ZM1711.03 299.753C1732.95 316.397 1754.25 333.832 1774.97 352.012C1796.8 371.299 1817.94 391.375 1838.39 412.174C1818.83 397.699 1798.67 384.103 1778 371.344C1755.07 357.251 1731.56 344.221 1707.59 332.116C1709.07 325.634 1710.34 319.085 1711 312.446C1711.39 308.245 1711.54 303.977 1711.03 299.753ZM1102.15 195.053C1083.78 182.239 1064.9 170.168 1045.39 159.224C1029.13 150.17 1012.46 141.904 995.295 134.764C1029.69 133 1064.12 132.425 1098.55 133.063C1132.84 133.786 1167.07 135.698 1201.23 138.844C1185.4 145.346 1170.05 152.977 1155.08 161.35C1136.87 171.635 1119.29 182.983 1102.15 195.053ZM995.288 134.773C981.036 128.926 966.494 123.872 951.632 119.884C939.221 116.647 926.646 114.163 913.914 112.616C943.853 108.88 973.895 106.186 1004.01 104.536C1034.4 102.97 1064.83 102.469 1095.24 103.033C1079.37 106.018 1063.7 109.985 1048.26 114.746C1030.25 120.427 1012.6 127.171 995.288 134.773ZM591.672 201.244C595.107 201.418 598.452 202.267 601.707 203.441C606.477 205.249 610.962 207.752 615.267 210.538C588.507 220.399 562.062 231.238 536.082 243.079C511.932 254.18 488.202 266.152 464.952 279.038C485.892 263.975 507.372 249.697 529.347 236.222C549.717 223.837 570.492 212.149 591.672 201.244Z" stroke="#a8a29e" stroke-width="1.5" stroke-miterlimit="10"/>
</g>
<defs>
<radialGradient id="paint0_radial_95_67" cx="0" cy="0" r="1" gradientUnits="userSpaceOnUse" gradientTransform="translate(1080.43 699.855) rotate(-90) scale(542.509 1092.61)">
<stop stop-color="white" stop-opacity="0.63"/>
<stop offset="1" stop-color="white" stop-opacity="0"/>
</radialGradient>
</defs>
</svg>
